<?xml version="1.0" encoding="UTF-8" standalone="no"?>
<!DOCTYPE svg PUBLIC "-//W3C//DTD SVG 1.1//EN" "http://www.w3.org/Graphics/SVG/1.1/DTD/svg11.dtd">
<svg width="100%" height="100%" viewBox="0 0 652 100" version="1.1" xmlns="http://www.w3.org/2000/svg" xmlns:xlink="http://www.w3.org/1999/xlink" xml:space="preserve" xmlns:serif="http://www.serif.com/" style="fill-rule:evenodd;clip-rule:evenodd;stroke-linejoin:round;stroke-miterlimit:2;">
    <g transform="matrix(1,0,0,1,0,-276)">
        <path d="M36.4,365.9C31.2,365.9 24.2,363.6 21.1,358.9C20.6,358.2 20.4,357.5 20.4,356.9C20.4,355 22.2,353.4 23.9,353.4C25.6,353.4 26,354.4 27,355.4C29.4,357.9 32.9,359 36.3,359C43.9,359 48.2,354.8 48.2,350.1C48.2,336.4 20.6,341.7 20.6,323.4C20.6,313.9 28.8,308.6 37,308.6C42.7,308.6 49.4,311.7 53,316.4C53.5,317.1 53.7,317.8 53.7,318.5C53.7,320.3 52.1,321.8 50.2,321.8C48.6,321.8 47.9,320.8 46.9,319.8C44.3,317.1 40.8,315.4 37,315.4C31.3,315.4 27.5,318.7 27.5,323.4C27.5,335.3 55.1,330.7 55.1,350.1C55.2,360.2 46.2,365.9 36.4,365.9" style="fill:rgb(40,40,40);fill-rule:nonzero;"/>
    </g>
    <g transform="matrix(1,0,0,1,0,-276)">
        <path d="M81.6,345.9L72.9,345.9L72.9,361.8C72.9,364.1 71.2,365.2 69.5,365.2C67.8,365.2 66.1,364 66.1,361.8L66.1,312.7C66.1,310.9 67.7,309.3 69.5,309.3L81.6,309.3C91.7,309.3 99.9,317.5 99.9,327.6C100,337.8 91.7,345.9 81.6,345.9M81.6,339.1C87.9,339.1 93.1,334 93.1,327.6C93.1,321.2 87.9,316.1 81.6,316.1L72.9,316.1L72.9,339.1L81.6,339.1Z" style="fill:rgb(40,40,40);fill-rule:nonzero;"/>
    </g>
    <g transform="matrix(1,0,0,1,0,-276)">
        <path d="M138.5,365.2L112.9,365.2C111.1,365.2 109.5,363.6 109.5,361.8L109.5,312.7C109.5,310.9 111.1,309.3 112.9,309.3L138.5,309.3C140.8,309.3 141.9,311 141.9,312.7C141.9,314.4 140.7,316.1 138.5,316.1L116.3,316.1L116.3,332.6L136.4,332.6C138.7,332.6 139.8,334.3 139.8,336C139.8,337.7 138.6,339.4 136.4,339.4L116.3,339.4L116.3,358.4L138.5,358.4C140.8,358.4 141.9,360.1 141.9,361.8C141.9,363.5 140.8,365.2 138.5,365.2" style="fill:rgb(40,40,40);fill-rule:nonzero;"/>
        <path d="M185.6,365.8C184.4,365.8 183.3,365.1 182.3,363.6L159,324.9L159,361.8C159,364 157.3,365.2 155.6,365.2C153.9,365.2 152.2,364 152.2,361.8L152.2,312.7C152.2,310.2 153.6,308.7 155.3,308.7C156.5,308.7 157.6,309.4 158.6,310.9L182,349.6L182,312.7C182,310.4 183.7,309.3 185.4,309.3C187.1,309.3 188.8,310.5 188.8,312.7L188.8,361.8C188.7,364.4 187.3,365.8 185.6,365.8" style="fill:rgb(40,40,40);fill-rule:nonzero;"/>
        <path d="M218.6,365.9C208.1,365.9 199.6,357.4 199.6,346.9L199.6,327.5C199.6,317 208.1,308.5 218.6,308.5C224.1,308.5 231.2,311 234.8,315.5C235.3,316.2 235.6,316.9 235.6,317.6C235.6,319.5 233.9,321.1 232.1,321.1C231.2,321.1 230.3,320.7 229.5,319.7L229,319.2C226.3,316.6 222.5,315.3 218.7,315.3C212,315.3 206.6,320.8 206.6,327.4L206.6,347C206.6,353.7 212.1,359.1 218.7,359.1C225.4,359.1 230.8,353.6 230.8,347L230.8,341L219.2,341C217,341 215.8,339.3 215.8,337.6C215.8,335.9 217,334.2 219.2,334.2L234.2,334.2C236,334.2 237.6,335.8 237.6,337.6L237.6,347C237.5,357.5 229.1,365.9 218.6,365.9" style="fill:rgb(40,40,40);fill-rule:nonzero;"/>
    </g>
    <g transform="matrix(1,0,0,1,0,-276)">
        <path d="M277.4,365.2L251.8,365.2C250,365.2 248.4,363.6 248.4,361.8L248.4,312.7C248.4,310.9 250,309.3 251.8,309.3L277.4,309.3C279.7,309.3 280.8,311 280.8,312.7C280.8,314.4 279.6,316.1 277.4,316.1L255.2,316.1L255.2,332.6L275.3,332.6C277.6,332.6 278.7,334.3 278.7,336C278.7,337.7 277.5,339.4 275.3,339.4L255.2,339.4L255.2,358.4L277.4,358.4C279.7,358.4 280.8,360.1 280.8,361.8C280.8,363.5 279.7,365.2 277.4,365.2" style="fill:rgb(40,40,40);fill-rule:nonzero;"/>
    </g>
    <g transform="matrix(1,0,0,1,0,-276)">
        <path d="M321.5,365.3C320.5,365.3 319.4,364.8 318.7,363.7L307.5,346L297.9,346L297.9,361.9C297.9,364.1 296.2,365.3 294.5,365.3C292.8,365.3 291.1,364.1 291.1,361.9L291.1,312.8C291.1,311 292.7,309.4 294.5,309.4L306.6,309.4C316.7,309.4 324.9,317.6 324.9,327.7C324.9,335.1 320.6,341.3 314.4,344.3L324.4,360.1C324.8,360.8 325,361.4 325,362C325.1,363.8 323.3,365.3 321.5,365.3M306.6,339.1C312.8,339.1 318.1,334.1 318.1,327.6C318.1,321.2 312.9,316.1 306.6,316.1L297.9,316.1L297.9,339.1L306.6,339.1Z" style="fill:rgb(40,40,40);fill-rule:nonzero;"/>
        <path d="M352.9,365.9C342.4,365.9 333.9,357.4 333.9,346.9L333.9,327.5C333.9,317 342.4,308.5 352.9,308.5C358.4,308.5 365.5,311 369.1,315.5C369.6,316.2 369.9,316.9 369.9,317.6C369.9,319.5 368.2,321.1 366.4,321.1C365.5,321.1 364.6,320.7 363.8,319.7L363.3,319.2C360.6,316.6 356.8,315.3 353,315.3C346.3,315.3 340.9,320.8 340.9,327.4L340.9,347C340.9,353.7 346.4,359.1 353,359.1C359.7,359.1 365.1,353.6 365.1,347L365.1,341L353.5,341C351.3,341 350.1,339.3 350.1,337.6C350.1,335.9 351.3,334.2 353.5,334.2L368.5,334.2C370.3,334.2 371.9,335.8 371.9,337.6L371.9,347C371.9,357.5 363.4,365.9 352.9,365.9" style="fill:rgb(40,40,40);fill-rule:nonzero;"/>
        <path d="M415.4,365.2C414.1,365.2 412.8,364.5 412.3,362.9L407.5,348.4L390.9,348.4L386.1,362.9C385.6,364.5 384.3,365.2 383,365.2C381.2,365.2 379.5,363.9 379.5,361.9C379.5,361.5 379.6,361.1 379.7,360.7L396.1,311.6C396.8,309.7 398,308.7 399.3,308.7C400.6,308.7 401.9,309.7 402.6,311.6L419,360.7C419.1,361.1 419.2,361.5 419.2,361.9C419,363.9 417.2,365.2 415.4,365.2M399.1,323.5L393.1,341.6L405.2,341.6L399.1,323.5Z" style="fill:rgb(40,40,40);fill-rule:nonzero;"/>
        <path d="M442.5,365.9C437.3,365.9 430.3,363.6 427.2,358.9C426.7,358.2 426.5,357.5 426.5,356.9C426.5,355 428.3,353.4 430,353.4C431.7,353.4 432.1,354.4 433.1,355.4C435.5,357.9 439,359 442.4,359C450,359 454.3,354.8 454.3,350.1C454.3,336.4 426.7,341.7 426.7,323.4C426.7,313.9 434.9,308.6 443.1,308.6C448.8,308.6 455.5,311.7 459.1,316.4C459.6,317.1 459.8,317.8 459.8,318.5C459.8,320.3 458.2,321.8 456.3,321.8C454.7,321.8 454,320.8 453,319.8C450.4,317.1 446.9,315.4 443.1,315.4C437.4,315.4 433.6,318.7 433.6,323.4C433.6,335.3 461.2,330.7 461.2,350.1C461.3,360.2 452.3,365.9 442.5,365.9" style="fill:rgb(40,40,40);fill-rule:nonzero;"/>
        <path d="M486.8,365.9C481.6,365.9 474.6,363.6 471.5,358.9C471,358.2 470.8,357.5 470.8,356.9C470.8,355 472.6,353.4 474.3,353.4C476,353.4 476.4,354.4 477.4,355.4C479.8,357.9 483.3,359 486.7,359C494.3,359 498.6,354.8 498.6,350.1C498.6,336.4 471,341.7 471,323.4C471,313.9 479.3,308.6 487.4,308.6C493.1,308.6 499.8,311.7 503.4,316.4C503.9,317.1 504.1,317.8 504.1,318.5C504.1,320.3 502.5,321.8 500.6,321.8C499,321.8 498.3,320.8 497.3,319.8C494.7,317.1 491.2,315.4 487.4,315.4C481.7,315.4 477.9,318.7 477.9,323.4C477.9,335.3 505.5,330.7 505.5,350.1C505.6,360.2 496.6,365.9 486.8,365.9" style="fill:rgb(40,40,40);fill-rule:nonzero;"/>
    </g>
    <g transform="matrix(1,0,0,1,0,-276)">
        <path d="M545.5,365.2L519.9,365.2C518.1,365.2 516.5,363.6 516.5,361.8L516.5,312.7C516.5,310.9 518.1,309.3 519.9,309.3L545.5,309.3C547.8,309.3 548.9,311 548.9,312.7C548.9,314.4 547.7,316.1 545.5,316.1L523.3,316.1L523.3,332.6L543.4,332.6C545.7,332.6 546.8,334.3 546.8,336C546.8,337.7 545.6,339.4 543.4,339.4L523.3,339.4L523.3,358.4L545.5,358.4C547.8,358.4 548.9,360.1 548.9,361.8C548.9,363.5 547.7,365.2 545.5,365.2" style="fill:rgb(40,40,40);fill-rule:nonzero;"/>
    </g>
    <g transform="matrix(1,0,0,1,0,-276)">
        <path d="M591.1,300.6C588.2,300.6 585.9,298.3 585.9,295.4L585.9,282.5C585.9,279.6 588.2,277.3 591.1,277.3C594,277.3 596.3,279.6 596.3,282.5L596.3,295.4C596.3,298.2 594,300.6 591.1,300.6" style="fill:rgb(226,0,57);fill-rule:nonzero;"/>
        <path d="M602.9,309.1C600.7,309.1 598.7,307.7 597.9,305.5C597,302.8 598.5,299.8 601.3,298.9L613.6,294.9C616.3,294 619.3,295.5 620.2,298.3C621.1,301 619.6,304 616.9,304.9L604.6,308.9C604,309 603.4,309.1 602.9,309.1" style="fill:rgb(226,0,57);fill-rule:nonzero;"/>
    </g>
    <g transform="matrix(1,0,0,1,0,-276)">
        <path d="M579.3,309.1C578.8,309.1 578.2,309 577.7,308.8L565.4,304.8C562.7,303.9 561.2,301 562,298.2C562.9,295.5 565.8,294 568.6,294.8L580.9,298.8C583.6,299.7 585.1,302.6 584.3,305.4C583.6,307.7 581.5,309.1 579.3,309.1" style="fill:rgb(226,0,57);fill-rule:nonzero;"/>
    </g>
    <g transform="matrix(1,0,0,1,0,-276)">
        <path d="M576.2,333.4C575.1,333.4 574.1,333.1 573.1,332.4C570.8,330.7 570.3,327.4 571.9,325.1L579.5,314.6C581.2,312.3 584.5,311.8 586.8,313.5C589.1,315.2 589.6,318.5 587.9,320.8L580.3,331.3C579.4,332.7 577.8,333.4 576.2,333.4" style="fill:rgb(226,0,57);fill-rule:nonzero;"/>
    </g>
    <g transform="matrix(1,0,0,1,0,-276)">
        <path d="M606,333.4C604.4,333.4 602.8,332.7 601.8,331.2L594.2,320.7C592.5,318.4 593,315.1 595.3,313.4C597.6,311.7 600.9,312.2 602.6,314.6L610.2,325.1C611.9,327.4 611.4,330.7 609,332.4C608.1,333.1 607.1,333.4 606,333.4" style="fill:rgb(226,0,57);fill-rule:nonzero;"/>
    </g>
</svg>
