<?xml version="1.0" encoding="UTF-8"?><svg id="Layer_3" xmlns="http://www.w3.org/2000/svg" width="268.26" height="126.67" viewBox="0 0 268.26 126.67"><path d="m19.44,77.99c-1.32,0-2.44-.14-3.38-.41-.93-.27-1.9-.66-2.9-1.16l-.34-5.25h.61l1.94,4.33c.77.57,1.52.95,2.25,1.14s1.48.29,2.25.29c1.52,0,2.67-.4,3.44-1.21.77-.81,1.16-1.94,1.16-3.39,0-1.09-.26-1.94-.77-2.56-.51-.61-1.24-1.16-2.18-1.64-.94-.48-2.05-1.03-3.33-1.67-1-.5-1.84-1-2.51-1.5-.67-.5-1.18-1.08-1.52-1.76s-.51-1.51-.51-2.51.3-1.92.9-2.81c.6-.9,1.38-1.64,2.34-2.22.96-.58,1.98-.87,3.07-.87,1,0,1.92.12,2.75.38.83.25,1.69.6,2.57,1.06l.34,5.12h-.61l-1.5-4.06c-.57-.52-1.13-.9-1.67-1.13-.54-.23-1.18-.34-1.91-.34-1.39,0-2.46.4-3.21,1.19-.75.8-1.12,1.76-1.12,2.9,0,.86.18,1.59.53,2.18.35.59.89,1.12,1.62,1.6s1.65.99,2.76,1.53c1.36.66,2.49,1.29,3.38,1.89s1.54,1.29,1.96,2.06c.42.77.63,1.75.63,2.93s-.35,2.14-1.04,3.02c-.69.88-1.58,1.57-2.64,2.08-1.07.51-2.19.77-3.38.77Z" style="fill:#231f20;"/><path d="m31.28,77.64v-.85l2.35-.51v-16.37l-2.35-.51v-.85h6.55v.85l-2.39.51v7.77l8.42-7.77-2.15-.51v-.85h6.07v.85l-1.94.38-8.66,7.67,9.41,8.93,2.15.41v.85h-3.44l-9.86-9.62v8.25l2.39.51v.85h-6.55Z" style="fill:#231f20;"/><path d="m56.14,77.64v-.85l2.66-.51v-7.71l-6.28-8.66-2.08-.51v-.85h6.21v.85l-2.01.41v.14l5.56,7.6,4.94-7.6v-.1l-2.08-.44v-.85h5.7v.85l-2.01.41-6.14,8.87v7.6l2.66.51v.85h-7.13Z" style="fill:#231f20;"/><path d="m72.34,63.77v-.48c1.07-.48,1.81-1.04,2.23-1.71.42-.66.63-1.3.63-1.91,0-.66-.16-1.16-.48-1.52-.32-.35-.69-.68-1.13-.97l-.75-.48v-.1l.44-.75c.07-.11.14-.2.22-.27.08-.07.21-.1.39-.1s.44.09.79.27c.64.34,1.11.81,1.42,1.4.31.59.46,1.23.46,1.91,0,.84-.31,1.7-.92,2.57-.61.88-1.72,1.59-3.31,2.13Z" style="fill:#231f20;"/><path d="m86.59,77.99c-1.18,0-2.19-.11-3.02-.34s-1.7-.56-2.61-.99l-.31-4.47h.68l1.67,3.65c.66.46,1.3.76,1.91.9.61.15,1.24.22,1.88.22,1.32,0,2.32-.33,3-.99.68-.66,1.02-1.59,1.02-2.8,0-.91-.23-1.62-.68-2.15-.46-.52-1.09-.98-1.91-1.38-.82-.4-1.79-.87-2.9-1.42-1.3-.64-2.28-1.3-2.95-1.98-.67-.68-1.01-1.67-1.01-2.97,0-.82.26-1.61.77-2.37.51-.76,1.19-1.39,2.03-1.89s1.75-.75,2.73-.75c.86,0,1.65.11,2.35.34.71.23,1.44.52,2.22.89l.31,4.33h-.72l-1.26-3.44c-.48-.39-.94-.67-1.4-.85s-.97-.27-1.53-.27c-1.25,0-2.2.32-2.85.97s-.97,1.44-.97,2.37c0,1.11.35,1.97,1.06,2.57.71.6,1.79,1.26,3.24,1.96,1.18.55,2.16,1.07,2.93,1.59.77.51,1.34,1.09,1.71,1.74.36.65.55,1.46.55,2.44s-.28,1.85-.84,2.61c-.56.76-1.28,1.36-2.18,1.81s-1.87.67-2.92.67Z" style="fill:#231f20;"/><path d="m106.51,77.64v-.85l2.66-.58v-19.64l-2.66-.58v-.85h7.64v.85l-2.93.58v8.87h12.89v-8.87l-2.93-.58v-.85h7.64v.85l-2.66.58v19.64l2.66.58v.85h-7.64v-.85l2.93-.58v-9.58h-12.89v9.58l2.93.58v.85h-7.64Z" style="fill:#231f20;"/><path d="m143.34,77.99c-1.77,0-3.36-.43-4.76-1.28-1.4-.85-2.5-2.02-3.29-3.51-.8-1.49-1.19-3.19-1.19-5.1s.4-3.62,1.19-5.11c.79-1.5,1.89-2.68,3.29-3.53,1.4-.85,2.98-1.28,4.76-1.28s3.36.43,4.76,1.28c1.4.85,2.5,2.03,3.31,3.53.81,1.5,1.21,3.2,1.21,5.11s-.4,3.61-1.21,5.1c-.81,1.49-1.91,2.66-3.31,3.51-1.4.85-2.98,1.28-4.76,1.28Zm.61-1.19c1.34,0,2.53-.32,3.56-.96,1.03-.64,1.84-1.54,2.4-2.71s.85-2.55.85-4.14c0-1.96-.35-3.65-1.06-5.1-.7-1.44-1.65-2.56-2.85-3.36-1.19-.8-2.54-1.19-4.04-1.19-1.36,0-2.57.32-3.61.96-1.05.64-1.87,1.54-2.46,2.71-.59,1.17-.89,2.55-.89,4.14,0,1.96.36,3.66,1.09,5.1.73,1.44,1.7,2.56,2.92,3.36,1.22.8,2.57,1.19,4.08,1.19Z" style="fill:#231f20;"/><path d="m157.9,77.64v-.85l2.35-.51v-16.37l-2.35-.51v-.85h5.93c2.07,0,3.7.42,4.89,1.26,1.19.84,1.79,1.99,1.79,3.44,0,1.18-.38,2.18-1.13,2.98-.75.81-1.74,1.42-2.97,1.82l5.66,8.36,1.94.38v.85h-3.48l-5.87-9.07h-2.63v7.67l2.25.55v.85h-6.41Zm6.17-17.97h-2.01v7.78h2.18c1.36,0,2.42-.36,3.17-1.07.75-.72,1.12-1.63,1.12-2.75,0-1.2-.38-2.17-1.14-2.88-.76-.72-1.87-1.08-3.32-1.08Z" style="fill:#231f20;"/><path d="m176.93,77.64v-.85l2.25-.51v-16.37l-2.25-.51v-.85h6.31v.85l-2.25.51v16.37l2.25.51v.85h-6.31Z" style="fill:#231f20;"/><path d="m189.38,77.64v-.58l10.61-17.39h-8.46l-1.09,3.85h-.72v-4.98h12.62v.58l-10.64,17.39h9.17l1.09-4.16h.72v5.29h-13.3Z" style="fill:#231f20;"/><path d="m218.06,77.99c-1.77,0-3.36-.43-4.76-1.28-1.4-.85-2.5-2.02-3.29-3.51-.8-1.49-1.19-3.19-1.19-5.1s.4-3.62,1.19-5.11c.79-1.5,1.89-2.68,3.29-3.53,1.4-.85,2.98-1.28,4.76-1.28s3.36.43,4.76,1.28c1.4.85,2.5,2.03,3.31,3.53.81,1.5,1.21,3.2,1.21,5.11s-.4,3.61-1.21,5.1c-.81,1.49-1.91,2.66-3.31,3.51-1.4.85-2.98,1.28-4.76,1.28Zm.61-1.19c1.34,0,2.53-.32,3.56-.96,1.03-.64,1.84-1.54,2.4-2.71s.85-2.55.85-4.14c0-1.96-.35-3.65-1.06-5.1-.7-1.44-1.65-2.56-2.85-3.36-1.19-.8-2.54-1.19-4.04-1.19-1.36,0-2.57.32-3.61.96-1.05.64-1.87,1.54-2.46,2.71-.59,1.17-.89,2.55-.89,4.14,0,1.96.36,3.66,1.09,5.1.73,1.44,1.7,2.56,2.92,3.36,1.22.8,2.57,1.19,4.08,1.19Z" style="fill:#231f20;"/><path d="m232.62,77.64v-.89l2.32-.48v-16.4l-2.32-.48v-.85h3.99l11.8,15.69v-14.36l-2.56-.48v-.85h6.1v.85l-2.28.48v17.9h-.79l-12.69-16.57v14.97l2.69.58v.89h-6.27Z" style="fill:#231f20;"/><path d="m101.31,23.27v1.68l-.54,1.26h-1.45l-.65,1.7-1.22-.03-4.14,12.13-.63-.03v1.97l-.29.16-2.97-.24.13-2.23h-.68l-3.02-2.67,4.81.11,1.96,1.74.35-.76-2.01-1.75-1.43-.04.78-7.84-1.55-2.01h-13.04l-1.48-1.47.98-1.37.57-.24,13.56-.11.99-1.8,1.27-.02c.15.45.41,1.28.51,1.58h3.79l.36-.75h-3.6l-.46-1.43.26-7.53.3-.5,1.93-.03,1.34,7.67h1l.35,1.08,2.53.13h.44s.51.12.51.12l.44,1.52Z" style="fill:#231f20;"/><polygon points="97.7 17.68 100.06 13.69 99.73 9.05 103.17 8.78 103.77 13.96 100.23 20.79 97.92 20.66 97.66 19.63 96.63 19.63 96.44 18.86 97.7 17.68" style="fill:#231f20;"/><line x1="102.32" y1="36.71" x2="109.35" y2="18.82" style="fill:none; stroke:#231f20; stroke-miterlimit:10; stroke-width:.93px;"/><line x1="105.86" y1="36.44" x2="112.36" y2="19.09" style="fill:none; stroke:#231f20; stroke-miterlimit:10; stroke-width:.9px;"/><line x1="109.39" y1="36.17" x2="115.37" y2="19.36" style="fill:none; stroke:#231f20; stroke-miterlimit:10; stroke-width:.87px;"/><line x1="112.93" y1="35.9" x2="118.38" y2="19.63" style="fill:none; stroke:#231f20; stroke-miterlimit:10; stroke-width:.84px;"/><line x1="116.46" y1="35.63" x2="121.4" y2="19.91" style="fill:none; stroke:#231f20; stroke-miterlimit:10; stroke-width:.81px;"/><line x1="119.99" y1="35.35" x2="124.41" y2="20.18" style="fill:none; stroke:#231f20; stroke-miterlimit:10; stroke-width:.78px;"/><line x1="123.53" y1="35.08" x2="127.42" y2="20.45" style="fill:none; stroke:#231f20; stroke-miterlimit:10; stroke-width:.75px;"/><line x1="127.06" y1="34.81" x2="130.43" y2="20.72" style="fill:none; stroke:#231f20; stroke-miterlimit:10; stroke-width:.72px;"/><line x1="130.59" y1="34.54" x2="133.44" y2="20.99" style="fill:none; stroke:#231f20; stroke-miterlimit:10; stroke-width:.69px;"/><line x1="134.13" y1="34.27" x2="136.45" y2="21.26" style="fill:none; stroke:#231f20; stroke-miterlimit:10; stroke-width:.66px;"/><line x1="137.66" y1="34" x2="139.46" y2="21.53" style="fill:none; stroke:#231f20; stroke-miterlimit:10; stroke-width:.63px;"/><line x1="141.2" y1="33.73" x2="142.47" y2="21.81" style="fill:none; stroke:#231f20; stroke-miterlimit:10; stroke-width:.6px;"/><line x1="144.73" y1="33.45" x2="145.48" y2="22.08" style="fill:none; stroke:#231f20; stroke-miterlimit:10; stroke-width:.57px;"/><line x1="148.26" y1="33.18" x2="148.49" y2="22.35" style="fill:none; stroke:#231f20; stroke-miterlimit:10; stroke-width:.54px;"/><line x1="151.8" y1="32.91" x2="151.5" y2="22.62" style="fill:none; stroke:#231f20; stroke-miterlimit:10; stroke-width:.51px;"/><line x1="155.33" y1="32.64" x2="154.51" y2="22.89" style="fill:none; stroke:#231f20; stroke-miterlimit:10; stroke-width:.48px;"/><line x1="158.87" y1="32.37" x2="157.52" y2="23.16" style="fill:none; stroke:#231f20; stroke-miterlimit:10; stroke-width:.45px;"/><line x1="162.4" y1="32.1" x2="160.53" y2="23.43" style="fill:none; stroke:#231f20; stroke-miterlimit:10; stroke-width:.42px;"/><line x1="165.93" y1="31.83" x2="163.54" y2="23.71" style="fill:none; stroke:#231f20; stroke-miterlimit:10; stroke-width:.39px;"/><line x1="169.47" y1="31.55" x2="166.55" y2="23.98" style="fill:none; stroke:#231f20; stroke-miterlimit:10; stroke-width:.36px;"/><line x1="173" y1="31.28" x2="169.56" y2="24.25" style="fill:none; stroke:#231f20; stroke-miterlimit:10; stroke-width:.33px;"/><line x1="176.54" y1="31.01" x2="172.57" y2="24.52" style="fill:none; stroke:#231f20; stroke-miterlimit:10; stroke-width:.3px;"/><line x1="180.07" y1="30.74" x2="175.58" y2="24.79" style="fill:none; stroke:#231f20; stroke-miterlimit:10; stroke-width:.27px;"/><line x1="183.6" y1="30.47" x2="178.59" y2="25.06" style="fill:none; stroke:#231f20; stroke-miterlimit:10; stroke-width:.24px;"/><line x1="187.14" y1="30.2" x2="181.6" y2="25.33" style="fill:none; stroke:#231f20; stroke-miterlimit:10; stroke-width:.21px;"/><line x1="190.67" y1="29.93" x2="184.61" y2="25.61" style="fill:none; stroke:#231f20; stroke-miterlimit:10; stroke-width:.18px;"/><line x1="194.21" y1="29.65" x2="187.63" y2="25.88" style="fill:none; stroke:#231f20; stroke-miterlimit:10; stroke-width:.15px;"/><line x1="197.74" y1="29.38" x2="190.64" y2="26.15" style="fill:none; stroke:#231f20; stroke-miterlimit:10; stroke-width:.12px;"/><line x1="201.27" y1="29.11" x2="193.65" y2="26.42" style="fill:none; stroke:#231f20; stroke-miterlimit:10; stroke-width:.09px;"/><line x1="204.81" y1="28.84" x2="196.66" y2="26.69" style="fill:none; stroke:#231f20; stroke-miterlimit:10; stroke-width:.06px;"/><line x1="208.34" y1="28.57" x2="199.67" y2="26.96" style="fill:none; stroke:#231f20; stroke-miterlimit:10; stroke-width:.03px;"/><line x1="211.88" y1="28.3" x2="202.68" y2="27.24" style="fill:none;"/><g id="Layer_4"><path d="m108.43,94.81c-.97,1.17-2.87,1.43-4.2.7-1.47-.96-.95-3.02-.34-4.3,2.53-4.66,9.92-2.97,13.75-.9,0,0-.49.87-.49.87-1.95-.9-4.67-.82-5.68,1.4-.53.92-.59,2.24.56,2.66,1.09.42,2.27-.13,2.98-1.04-.33,1.27-1.93,1.82-3.12,1.45-1.47-.39-1.62-2.2-1.01-3.35.98-2.64,4.34-3.08,6.68-2.03,0,0-.49.87-.49.87-3.04-1.65-7.36-2.78-10.72-1.46-1.62.72-2.68,2.7-2.52,4.41.52,2.03,3.17,1.48,4.6.72h0Z" style="fill:#231f20;"/><path d="m117.61,90.3c3.17,1.9,5.76,5.06,9.68,5.13.92.03,1.86.06,2.62-.36,1.65-.94,1.12-3.55-.36-4.43-.78-.54-1.81-.34-2.59.09,0,0,.6-.38.6-.38,1.7-.82,3.46.77,3.7,2.46.38,2.52-1.91,3.33-3.99,3.18-3.99.11-6.95-3.04-10.17-4.84,0,0,.52-.85.52-.85h0Z" style="fill:#231f20;"/><path d="m127.48,86.8c1.17-1.11,3.22-.93,4.35.19,2.23,2.32,2.2,5.89,1.19,8.74-1.1,2.77-4.01,5.5-7.19,4.8-.83-.2-1.73-.6-1.96-1.57-.19-1.09.97-1.61,1.81-1.71,3.17-.55,5.66,2.11,7.79,4.05,0,0,.24.24.24.24-1.69,1.41-1.95,4.04-.94,5.93.08.21.37.5.46.61,0,0,0,.38,0,.38-.33-.05-.41-.16-.57-.27-1.95-1.75-1.96-5.5.38-6.93,0,0-.04.56-.06.52-1.98-1.78-4.28-4.31-7.18-3.79-1.88.28-1.25,1.49.2,1.77,2.76.56,5.26-1.94,6.2-4.34,1.44-3.54.4-9.96-4.72-8.61h0Z" style="fill:#231f20;"/><path d="m158.02,94.81c1.43.76,4.08,1.31,4.6-.72.16-1.72-.89-3.69-2.52-4.41-3.36-1.32-7.67-.19-10.72,1.46,0,0-.49-.87-.49-.87,2.34-1.05,5.7-.61,6.68,2.03.61,1.15.46,2.96-1.01,3.35-1.19.37-2.79-.18-3.12-1.45.7.91,1.89,1.45,2.98,1.04,1.16-.42,1.09-1.73.56-2.66-1.01-2.22-3.73-2.3-5.68-1.4,0,0-.49-.87-.49-.87,3.83-2.07,11.23-3.76,13.75.9.6,1.28,1.13,3.34-.34,4.3-1.33.73-3.23.47-4.2-.7h0Z" style="fill:#231f20;"/><path d="m149.36,91.16c-3.22,1.8-6.19,4.95-10.17,4.84-.94,0-1.98,0-2.87-.53-1.88-1.17-1.26-4.05.47-5.02.85-.54,1.95-.31,2.71.29-1.84-1.1-3.69.14-3.96,2.13-.29,3.38,4.19,2.78,6.29,2.04,2.61-1.05,4.57-3.14,7.01-4.6,0,0,.52.85.52.85h0Z" style="fill:#231f20;"/><path d="m138.97,86.8c-5.12-1.35-6.16,5.06-4.72,8.61.94,2.4,3.44,4.9,6.2,4.34,1.44-.27,2.09-1.48.2-1.77-2.9-.52-5.21,2.02-7.18,3.8,0,0-.05-.53-.05-.53,2.34,1.44,2.33,5.19.38,6.93-.16.11-.24.22-.57.27v-.38c.1-.11.37-.41.46-.61,1.01-1.89.75-4.52-.94-5.93,0,0,.24-.24.24-.24,2.13-1.94,4.62-4.6,7.79-4.05.83.1,2,.62,1.81,1.71-.23.97-1.13,1.37-1.96,1.57-3.18.7-6.1-2.03-7.19-4.8-1.01-2.85-1.05-6.42,1.19-8.74,1.13-1.12,3.18-1.3,4.35-.19h0Z" style="fill:#231f20;"/><path d="m170.21,95.86c18.08.44,37.25.39,55.32.07.44.03,1.28-.15,1.66.15-.09.05-.17.18-.07.27l-.26-.21.66.02c-.01.14.03.25-.09.38-.65.48-1.08.3-1.9.34-15.74-.06-39.38-.16-55.35-.03,0,0-.5,0-.5,0v-1.01s.51.01.51.01h0Z" style="fill:#231f20;"/><path d="m233.62,95.12c-.73-.06-1.1-.59-1.72-.78-1.96-.65-3.2,1.08-4.61,2.12,0,0-.41-.41-.41-.41.95-1.36,2.41-2.78,4.22-2.65,1,.04,2.24.68,2.52,1.72h0Z" style="fill:#231f20;"/><circle cx="170.1" cy="96.36" r=".5" style="fill:none; stroke:#231f20; stroke-miterlimit:10;"/><circle cx="230.86" cy="96.36" r=".48" style="fill:none; stroke:#231f20; stroke-miterlimit:10;"/><circle cx="222.97" cy="96.36" r=".48" style="fill:none; stroke:#231f20; stroke-miterlimit:10;"/><path d="m233.62,97.61c-.28,1.04-1.52,1.67-2.52,1.72-1.81.13-3.27-1.29-4.22-2.65,0,0,.41-.41.41-.41,1.04.66,1.75,1.82,2.96,2.13.86.23,1.72.11,2.44-.41.26-.17.52-.34.93-.37h0Z" style="fill:#231f20;"/><path d="m96.04,96.81c-16.08-.13-39.52-.03-55.35.03-.81-.05-1.24.14-1.9-.34-.13-.13-.06-.24-.09-.38,0,0,.66-.02.66-.02l-.26.21c.12-.09,0-.24-.07-.27.39-.3,1.2-.12,1.66-.15,13.04.22,27.94.36,41.05.16,4.93-.03,9.85-.12,14.78-.25v1.01s-.49,0-.49,0h0Z" style="fill:#231f20;"/><path d="m32.62,95.06c.28-1.04,1.52-1.67,2.52-1.72,1.81-.13,3.27,1.29,4.22,2.65,0,0-.41.41-.41.41-1.04-.66-1.75-1.82-2.96-2.13-.86-.23-1.72-.11-2.44.41-.26.17-.52.34-.93.37h0Z" style="fill:#231f20;"/><circle cx="96.13" cy="96.31" r=".5" style="fill:none; stroke:#231f20; stroke-miterlimit:10;"/><circle cx="35.38" cy="96.31" r=".48" style="fill:none; stroke:#231f20; stroke-miterlimit:10;"/><circle cx="43.27" cy="96.31" r=".48" style="fill:none; stroke:#231f20; stroke-miterlimit:10;"/><path d="m32.62,97.56c.73.06,1.1.59,1.72.78,1.96.65,3.2-1.08,4.61-2.12,0,0,.41.41.41.41-.95,1.36-2.41,2.78-4.22,2.65-1-.04-2.24-.68-2.52-1.72h0Z" style="fill:#231f20;"/></g></svg>