<svg width="373" height="27" viewBox="0 0 373 27" fill="none" xmlns="http://www.w3.org/2000/svg">
<g filter="url(#filter0_d_205_300)">
<path d="M0.28125 0.5625H4.96875V5.25H0.28125V0.5625ZM9.65625 0.5625H14.3438V5.25H9.65625V0.5625ZM19.0312 0.5625H23.7188V5.25H19.0312V0.5625ZM0.28125 5.25H4.96875V9.9375H0.28125V5.25ZM9.65625 5.25H14.3438V9.9375H9.65625V5.25ZM19.0312 5.25H23.7188V9.9375H19.0312V5.25ZM0.28125 9.9375H4.96875V14.625H0.28125V9.9375ZM9.65625 9.9375H14.3438V14.625H9.65625V9.9375ZM19.0312 9.9375H23.7188V14.625H19.0312V9.9375ZM0.28125 14.625H4.96875V19.3125H0.28125V14.625ZM9.65625 14.625H14.3438V19.3125H9.65625V14.625ZM19.0312 14.625H23.7188V19.3125H19.0312V14.625ZM4.96875 19.3125H9.65625V24H4.96875V19.3125ZM14.3438 19.3125H19.0312V24H14.3438V19.3125ZM29.0625 0.5625H33.75V5.25H29.0625V0.5625ZM33.75 0.5625H38.4375V5.25H33.75V0.5625ZM38.4375 0.5625H43.125V5.25H38.4375V0.5625ZM43.125 0.5625H47.8125V5.25H43.125V0.5625ZM29.0625 5.25H33.75V9.9375H29.0625V5.25ZM29.0625 9.9375H33.75V14.625H29.0625V9.9375ZM33.75 9.9375H38.4375V14.625H33.75V9.9375ZM38.4375 9.9375H43.125V14.625H38.4375V9.9375ZM29.0625 14.625H33.75V19.3125H29.0625V14.625ZM29.0625 19.3125H33.75V24H29.0625V19.3125ZM33.75 19.3125H38.4375V24H33.75V19.3125ZM38.4375 19.3125H43.125V24H38.4375V19.3125ZM43.125 19.3125H47.8125V24H43.125V19.3125ZM53.0625 0.5625H57.75V5.25H53.0625V0.5625ZM57.75 0.5625H62.4375V5.25H57.75V0.5625ZM62.4375 0.5625H67.125V5.25H62.4375V0.5625ZM53.0625 5.25H57.75V9.9375H53.0625V5.25ZM62.4375 5.25H67.125V9.9375H62.4375V5.25ZM53.0625 9.9375H57.75V14.625H53.0625V9.9375ZM57.75 9.9375H62.4375V14.625H57.75V9.9375ZM62.4375 9.9375H67.125V14.625H62.4375V9.9375ZM67.125 9.9375H71.8125V14.625H67.125V9.9375ZM53.0625 14.625H57.75V19.3125H53.0625V14.625ZM67.125 14.625H71.8125V19.3125H67.125V14.625ZM53.0625 19.3125H57.75V24H53.0625V19.3125ZM57.75 19.3125H62.4375V24H57.75V19.3125ZM62.4375 19.3125H67.125V24H62.4375V19.3125ZM67.125 19.3125H71.8125V24H67.125V19.3125ZM96.2812 0.5625H100.969V5.25H96.2812V0.5625ZM115.031 0.5625H119.719V5.25H115.031V0.5625ZM96.2812 5.25H100.969V9.9375H96.2812V5.25ZM100.969 5.25H105.656V9.9375H100.969V5.25ZM110.344 5.25H115.031V9.9375H110.344V5.25ZM115.031 5.25H119.719V9.9375H115.031V5.25ZM96.2812 9.9375H100.969V14.625H96.2812V9.9375ZM105.656 9.9375H110.344V14.625H105.656V9.9375ZM115.031 9.9375H119.719V14.625H115.031V9.9375ZM96.2812 14.625H100.969V19.3125H96.2812V14.625ZM115.031 14.625H119.719V19.3125H115.031V14.625ZM96.2812 19.3125H100.969V24H96.2812V19.3125ZM115.031 19.3125H119.719V24H115.031V19.3125ZM125.062 0.5625H129.75V5.25H125.062V0.5625ZM139.125 0.5625H143.812V5.25H139.125V0.5625ZM125.062 5.25H129.75V9.9375H125.062V5.25ZM139.125 5.25H143.812V9.9375H139.125V5.25ZM125.062 9.9375H129.75V14.625H125.062V9.9375ZM139.125 9.9375H143.812V14.625H139.125V9.9375ZM125.062 14.625H129.75V19.3125H125.062V14.625ZM139.125 14.625H143.812V19.3125H139.125V14.625ZM129.75 19.3125H134.438V24H129.75V19.3125ZM134.438 19.3125H139.125V24H134.438V19.3125ZM149.062 0.5625H153.75V5.25H149.062V0.5625ZM153.75 0.5625H158.438V5.25H153.75V0.5625ZM158.438 0.5625H163.125V5.25H158.438V0.5625ZM163.125 0.5625H167.812V5.25H163.125V0.5625ZM149.062 5.25H153.75V9.9375H149.062V5.25ZM149.062 9.9375H153.75V14.625H149.062V9.9375ZM153.75 9.9375H158.438V14.625H153.75V9.9375ZM158.438 9.9375H163.125V14.625H158.438V9.9375ZM163.125 9.9375H167.812V14.625H163.125V9.9375ZM163.125 14.625H167.812V19.3125H163.125V14.625ZM149.062 19.3125H153.75V24H149.062V19.3125ZM153.75 19.3125H158.438V24H153.75V19.3125ZM158.438 19.3125H163.125V24H158.438V19.3125ZM163.125 19.3125H167.812V24H163.125V19.3125ZM173.062 0.5625H177.75V5.25H173.062V0.5625ZM177.75 0.5625H182.438V5.25H177.75V0.5625ZM182.438 0.5625H187.125V5.25H182.438V0.5625ZM177.75 5.25H182.438V9.9375H177.75V5.25ZM177.75 9.9375H182.438V14.625H177.75V9.9375ZM177.75 14.625H182.438V19.3125H177.75V14.625ZM173.062 19.3125H177.75V24H173.062V19.3125ZM177.75 19.3125H182.438V24H177.75V19.3125ZM182.438 19.3125H187.125V24H182.438V19.3125ZM192.281 0.5625H196.969V5.25H192.281V0.5625ZM196.969 0.5625H201.656V5.25H196.969V0.5625ZM201.656 0.5625H206.344V5.25H201.656V0.5625ZM206.344 0.5625H211.031V5.25H206.344V0.5625ZM192.281 5.25H196.969V9.9375H192.281V5.25ZM206.344 5.25H211.031V9.9375H206.344V5.25ZM192.281 9.9375H196.969V14.625H192.281V9.9375ZM192.281 14.625H196.969V19.3125H192.281V14.625ZM206.344 14.625H211.031V19.3125H206.344V14.625ZM192.281 19.3125H196.969V24H192.281V19.3125ZM196.969 19.3125H201.656V24H196.969V19.3125ZM201.656 19.3125H206.344V24H201.656V19.3125ZM206.344 19.3125H211.031V24H206.344V19.3125ZM235.5 0.5625H240.188V5.25H235.5V0.5625ZM240.188 0.5625H244.875V5.25H240.188V0.5625ZM244.875 0.5625H249.562V5.25H244.875V0.5625ZM249.562 0.5625H254.25V5.25H249.562V0.5625ZM235.5 5.25H240.188V9.9375H235.5V5.25ZM249.562 5.25H254.25V9.9375H249.562V5.25ZM235.5 9.9375H240.188V14.625H235.5V9.9375ZM240.188 9.9375H244.875V14.625H240.188V9.9375ZM244.875 9.9375H249.562V14.625H244.875V9.9375ZM249.562 9.9375H254.25V14.625H249.562V9.9375ZM235.5 14.625H240.188V19.3125H235.5V14.625ZM235.5 19.3125H240.188V24H235.5V19.3125ZM259.5 0.5625H264.188V5.25H259.5V0.5625ZM259.5 5.25H264.188V9.9375H259.5V5.25ZM259.5 9.9375H264.188V14.625H259.5V9.9375ZM259.5 14.625H264.188V19.3125H259.5V14.625ZM259.5 19.3125H264.188V24H259.5V19.3125ZM264.188 19.3125H268.875V24H264.188V19.3125ZM268.875 19.3125H273.562V24H268.875V19.3125ZM278.719 0.5625H283.406V5.25H278.719V0.5625ZM283.406 0.5625H288.094V5.25H283.406V0.5625ZM288.094 0.5625H292.781V5.25H288.094V0.5625ZM292.781 0.5625H297.469V5.25H292.781V0.5625ZM278.719 5.25H283.406V9.9375H278.719V5.25ZM292.781 5.25H297.469V9.9375H292.781V5.25ZM278.719 9.9375H283.406V14.625H278.719V9.9375ZM283.406 9.9375H288.094V14.625H283.406V9.9375ZM288.094 9.9375H292.781V14.625H288.094V9.9375ZM292.781 9.9375H297.469V14.625H292.781V9.9375ZM278.719 14.625H283.406V19.3125H278.719V14.625ZM292.781 14.625H297.469V19.3125H292.781V14.625ZM278.719 19.3125H283.406V24H278.719V19.3125ZM292.781 19.3125H297.469V24H292.781V19.3125ZM302.719 0.5625H307.406V5.25H302.719V0.5625ZM316.781 0.5625H321.469V5.25H316.781V0.5625ZM302.719 5.25H307.406V9.9375H302.719V5.25ZM316.781 5.25H321.469V9.9375H316.781V5.25ZM302.719 9.9375H307.406V14.625H302.719V9.9375ZM307.406 9.9375H312.094V14.625H307.406V9.9375ZM312.094 9.9375H316.781V14.625H312.094V9.9375ZM316.781 9.9375H321.469V14.625H316.781V9.9375ZM316.781 14.625H321.469V19.3125H316.781V14.625ZM302.719 19.3125H307.406V24H302.719V19.3125ZM307.406 19.3125H312.094V24H307.406V19.3125ZM312.094 19.3125H316.781V24H312.094V19.3125ZM316.781 19.3125H321.469V24H316.781V19.3125ZM326.719 0.5625H331.406V5.25H326.719V0.5625ZM331.406 0.5625H336.094V5.25H331.406V0.5625ZM336.094 0.5625H340.781V5.25H336.094V0.5625ZM340.781 0.5625H345.469V5.25H340.781V0.5625ZM326.719 5.25H331.406V9.9375H326.719V5.25ZM326.719 9.9375H331.406V14.625H326.719V9.9375ZM331.406 9.9375H336.094V14.625H331.406V9.9375ZM336.094 9.9375H340.781V14.625H336.094V9.9375ZM326.719 14.625H331.406V19.3125H326.719V14.625ZM326.719 19.3125H331.406V24H326.719V19.3125ZM331.406 19.3125H336.094V24H331.406V19.3125ZM336.094 19.3125H340.781V24H336.094V19.3125ZM340.781 19.3125H345.469V24H340.781V19.3125ZM350.719 0.5625H355.406V5.25H350.719V0.5625ZM355.406 0.5625H360.094V5.25H355.406V0.5625ZM360.094 0.5625H364.781V5.25H360.094V0.5625ZM364.781 0.5625H369.469V5.25H364.781V0.5625ZM350.719 5.25H355.406V9.9375H350.719V5.25ZM364.781 5.25H369.469V9.9375H364.781V5.25ZM350.719 9.9375H355.406V14.625H350.719V9.9375ZM355.406 9.9375H360.094V14.625H355.406V9.9375ZM360.094 9.9375H364.781V14.625H360.094V9.9375ZM364.781 9.9375H369.469V14.625H364.781V9.9375ZM350.719 14.625H355.406V19.3125H350.719V14.625ZM360.094 14.625H364.781V19.3125H360.094V14.625ZM350.719 19.3125H355.406V24H350.719V19.3125ZM360.094 19.3125H364.781V24H360.094V19.3125ZM364.781 19.3125H369.469V24H364.781V19.3125Z" fill="#F5F5F5"/>
</g>
<defs>
<filter id="filter0_d_205_300" x="0.28125" y="0.5625" width="372.188" height="26.4375" filterUnits="userSpaceOnUse" color-interpolation-filters="sRGB">
<feFlood flood-opacity="0" result="BackgroundImageFix"/>
<feColorMatrix in="SourceAlpha" type="matrix" values="0 0 0 0 0 0 0 0 0 0 0 0 0 0 0 0 0 0 127 0" result="hardAlpha"/>
<feOffset dx="3" dy="3"/>
<feComposite in2="hardAlpha" operator="out"/>
<feColorMatrix type="matrix" values="0 0 0 0 0.156863 0 0 0 0 0.156863 0 0 0 0 0.156863 0 0 0 1 0"/>
<feBlend mode="normal" in2="BackgroundImageFix" result="effect1_dropShadow_205_300"/>
<feBlend mode="normal" in="SourceGraphic" in2="effect1_dropShadow_205_300" result="shape"/>
</filter>
</defs>
</svg>
