<svg width="570" height="27" viewBox="0 0 570 27" fill="none" xmlns="http://www.w3.org/2000/svg">
<g filter="url(#filter0_d_205_300)">
<path d="M0.296875 0.5625H4.98438V5.25H0.296875V0.5625ZM4.98438 0.5625H9.67188V5.25H4.98438V0.5625ZM9.67188 0.5625H14.3594V5.25H9.67188V0.5625ZM14.3594 0.5625H19.0469V5.25H14.3594V0.5625ZM0.296875 5.25H4.98438V9.9375H0.296875V5.25ZM14.3594 5.25H19.0469V9.9375H14.3594V5.25ZM0.296875 9.9375H4.98438V14.625H0.296875V9.9375ZM4.98438 9.9375H9.67188V14.625H4.98438V9.9375ZM9.67188 9.9375H14.3594V14.625H9.67188V9.9375ZM14.3594 9.9375H19.0469V14.625H14.3594V9.9375ZM0.296875 14.625H4.98438V19.3125H0.296875V14.625ZM9.67188 14.625H14.3594V19.3125H9.67188V14.625ZM0.296875 19.3125H4.98438V24H0.296875V19.3125ZM9.67188 19.3125H14.3594V24H9.67188V19.3125ZM14.3594 19.3125H19.0469V24H14.3594V19.3125ZM24.2969 0.5625H28.9844V5.25H24.2969V0.5625ZM38.3594 0.5625H43.0469V5.25H38.3594V0.5625ZM24.2969 5.25H28.9844V9.9375H24.2969V5.25ZM38.3594 5.25H43.0469V9.9375H38.3594V5.25ZM24.2969 9.9375H28.9844V14.625H24.2969V9.9375ZM38.3594 9.9375H43.0469V14.625H38.3594V9.9375ZM24.2969 14.625H28.9844V19.3125H24.2969V14.625ZM38.3594 14.625H43.0469V19.3125H38.3594V14.625ZM28.9844 19.3125H33.6719V24H28.9844V19.3125ZM33.6719 19.3125H38.3594V24H33.6719V19.3125ZM48.2969 0.5625H52.9844V5.25H48.2969V0.5625ZM62.3594 0.5625H67.0469V5.25H62.3594V0.5625ZM48.2969 5.25H52.9844V9.9375H48.2969V5.25ZM62.3594 5.25H67.0469V9.9375H62.3594V5.25ZM48.2969 9.9375H52.9844V14.625H48.2969V9.9375ZM52.9844 9.9375H57.6719V14.625H52.9844V9.9375ZM62.3594 9.9375H67.0469V14.625H62.3594V9.9375ZM48.2969 14.625H52.9844V19.3125H48.2969V14.625ZM57.6719 14.625H62.3594V19.3125H57.6719V14.625ZM62.3594 14.625H67.0469V19.3125H62.3594V14.625ZM48.2969 19.3125H52.9844V24H48.2969V19.3125ZM62.3594 19.3125H67.0469V24H62.3594V19.3125ZM91.5156 0.5625H96.2031V5.25H91.5156V0.5625ZM96.2031 0.5625H100.891V5.25H96.2031V0.5625ZM100.891 0.5625H105.578V5.25H100.891V0.5625ZM96.2031 5.25H100.891V9.9375H96.2031V5.25ZM96.2031 9.9375H100.891V14.625H96.2031V9.9375ZM96.2031 14.625H100.891V19.3125H96.2031V14.625ZM96.2031 19.3125H100.891V24H96.2031V19.3125ZM110.734 0.5625H115.422V5.25H110.734V0.5625ZM124.797 0.5625H129.484V5.25H124.797V0.5625ZM110.734 5.25H115.422V9.9375H110.734V5.25ZM124.797 5.25H129.484V9.9375H124.797V5.25ZM110.734 9.9375H115.422V14.625H110.734V9.9375ZM115.422 9.9375H120.109V14.625H115.422V9.9375ZM120.109 9.9375H124.797V14.625H120.109V9.9375ZM124.797 9.9375H129.484V14.625H124.797V9.9375ZM110.734 14.625H115.422V19.3125H110.734V14.625ZM124.797 14.625H129.484V19.3125H124.797V14.625ZM110.734 19.3125H115.422V24H110.734V19.3125ZM124.797 19.3125H129.484V24H124.797V19.3125ZM134.734 0.5625H139.422V5.25H134.734V0.5625ZM139.422 0.5625H144.109V5.25H139.422V0.5625ZM144.109 0.5625H148.797V5.25H144.109V0.5625ZM139.422 5.25H144.109V9.9375H139.422V5.25ZM139.422 9.9375H144.109V14.625H139.422V9.9375ZM139.422 14.625H144.109V19.3125H139.422V14.625ZM134.734 19.3125H139.422V24H134.734V19.3125ZM139.422 19.3125H144.109V24H139.422V19.3125ZM144.109 19.3125H148.797V24H144.109V19.3125ZM153.953 0.5625H158.641V5.25H153.953V0.5625ZM158.641 0.5625H163.328V5.25H158.641V0.5625ZM163.328 0.5625H168.016V5.25H163.328V0.5625ZM168.016 0.5625H172.703V5.25H168.016V0.5625ZM153.953 5.25H158.641V9.9375H153.953V5.25ZM153.953 9.9375H158.641V14.625H153.953V9.9375ZM158.641 9.9375H163.328V14.625H158.641V9.9375ZM163.328 9.9375H168.016V14.625H163.328V9.9375ZM168.016 9.9375H172.703V14.625H168.016V9.9375ZM168.016 14.625H172.703V19.3125H168.016V14.625ZM153.953 19.3125H158.641V24H153.953V19.3125ZM158.641 19.3125H163.328V24H158.641V19.3125ZM163.328 19.3125H168.016V24H163.328V19.3125ZM168.016 19.3125H172.703V24H168.016V19.3125ZM197.172 0.5625H201.859V5.25H197.172V0.5625ZM201.859 0.5625H206.547V5.25H201.859V0.5625ZM206.547 0.5625H211.234V5.25H206.547V0.5625ZM211.234 0.5625H215.922V5.25H211.234V0.5625ZM197.172 5.25H201.859V9.9375H197.172V5.25ZM211.234 5.25H215.922V9.9375H211.234V5.25ZM197.172 9.9375H201.859V14.625H197.172V9.9375ZM201.859 9.9375H206.547V14.625H201.859V9.9375ZM206.547 9.9375H211.234V14.625H206.547V9.9375ZM211.234 9.9375H215.922V14.625H211.234V9.9375ZM197.172 14.625H201.859V19.3125H197.172V14.625ZM197.172 19.3125H201.859V24H197.172V19.3125ZM221.172 0.5625H225.859V5.25H221.172V0.5625ZM225.859 0.5625H230.547V5.25H225.859V0.5625ZM230.547 0.5625H235.234V5.25H230.547V0.5625ZM235.234 0.5625H239.922V5.25H235.234V0.5625ZM221.172 5.25H225.859V9.9375H221.172V5.25ZM235.234 5.25H239.922V9.9375H235.234V5.25ZM221.172 9.9375H225.859V14.625H221.172V9.9375ZM235.234 9.9375H239.922V14.625H235.234V9.9375ZM221.172 14.625H225.859V19.3125H221.172V14.625ZM235.234 14.625H239.922V19.3125H235.234V14.625ZM221.172 19.3125H225.859V24H221.172V19.3125ZM225.859 19.3125H230.547V24H225.859V19.3125ZM230.547 19.3125H235.234V24H230.547V19.3125ZM235.234 19.3125H239.922V24H235.234V19.3125ZM245.172 0.5625H249.859V5.25H245.172V0.5625ZM249.859 0.5625H254.547V5.25H249.859V0.5625ZM254.547 0.5625H259.234V5.25H254.547V0.5625ZM259.234 0.5625H263.922V5.25H259.234V0.5625ZM245.172 5.25H249.859V9.9375H245.172V5.25ZM259.234 5.25H263.922V9.9375H259.234V5.25ZM245.172 9.9375H249.859V14.625H245.172V9.9375ZM249.859 9.9375H254.547V14.625H249.859V9.9375ZM254.547 9.9375H259.234V14.625H254.547V9.9375ZM259.234 9.9375H263.922V14.625H259.234V9.9375ZM245.172 14.625H249.859V19.3125H245.172V14.625ZM254.547 14.625H259.234V19.3125H254.547V14.625ZM245.172 19.3125H249.859V24H245.172V19.3125ZM254.547 19.3125H259.234V24H254.547V19.3125ZM259.234 19.3125H263.922V24H259.234V19.3125ZM269.172 0.5625H273.859V5.25H269.172V0.5625ZM273.859 0.5625H278.547V5.25H273.859V0.5625ZM278.547 0.5625H283.234V5.25H278.547V0.5625ZM273.859 5.25H278.547V9.9375H273.859V5.25ZM273.859 9.9375H278.547V14.625H273.859V9.9375ZM273.859 14.625H278.547V19.3125H273.859V14.625ZM273.859 19.3125H278.547V24H273.859V19.3125ZM288.391 0.5625H293.078V5.25H288.391V0.5625ZM293.078 0.5625H297.766V5.25H293.078V0.5625ZM297.766 0.5625H302.453V5.25H297.766V0.5625ZM302.453 0.5625H307.141V5.25H302.453V0.5625ZM288.391 5.25H293.078V9.9375H288.391V5.25ZM288.391 9.9375H293.078V14.625H288.391V9.9375ZM293.078 9.9375H297.766V14.625H293.078V9.9375ZM297.766 9.9375H302.453V14.625H297.766V9.9375ZM288.391 14.625H293.078V19.3125H288.391V14.625ZM288.391 19.3125H293.078V24H288.391V19.3125ZM312.391 0.5625H317.078V5.25H312.391V0.5625ZM317.078 0.5625H321.766V5.25H317.078V0.5625ZM321.766 0.5625H326.453V5.25H321.766V0.5625ZM326.453 0.5625H331.141V5.25H326.453V0.5625ZM312.391 5.25H317.078V9.9375H312.391V5.25ZM326.453 5.25H331.141V9.9375H326.453V5.25ZM312.391 9.9375H317.078V14.625H312.391V9.9375ZM326.453 9.9375H331.141V14.625H326.453V9.9375ZM312.391 14.625H317.078V19.3125H312.391V14.625ZM326.453 14.625H331.141V19.3125H326.453V14.625ZM312.391 19.3125H317.078V24H312.391V19.3125ZM317.078 19.3125H321.766V24H317.078V19.3125ZM321.766 19.3125H326.453V24H321.766V19.3125ZM326.453 19.3125H331.141V24H326.453V19.3125ZM336.391 0.5625H341.078V5.25H336.391V0.5625ZM336.391 5.25H341.078V9.9375H336.391V5.25ZM336.391 9.9375H341.078V14.625H336.391V9.9375ZM336.391 14.625H341.078V19.3125H336.391V14.625ZM336.391 19.3125H341.078V24H336.391V19.3125ZM341.078 19.3125H345.766V24H341.078V19.3125ZM345.766 19.3125H350.453V24H345.766V19.3125ZM355.609 0.5625H360.297V5.25H355.609V0.5625ZM360.297 0.5625H364.984V5.25H360.297V0.5625ZM364.984 0.5625H369.672V5.25H364.984V0.5625ZM360.297 5.25H364.984V9.9375H360.297V5.25ZM360.297 9.9375H364.984V14.625H360.297V9.9375ZM360.297 14.625H364.984V19.3125H360.297V14.625ZM355.609 19.3125H360.297V24H355.609V19.3125ZM360.297 19.3125H364.984V24H360.297V19.3125ZM364.984 19.3125H369.672V24H364.984V19.3125ZM374.828 0.5625H379.516V5.25H374.828V0.5625ZM379.516 0.5625H384.203V5.25H379.516V0.5625ZM384.203 0.5625H388.891V5.25H384.203V0.5625ZM388.891 0.5625H393.578V5.25H388.891V0.5625ZM374.828 5.25H379.516V9.9375H374.828V5.25ZM388.891 5.25H393.578V9.9375H388.891V5.25ZM374.828 9.9375H379.516V14.625H374.828V9.9375ZM388.891 9.9375H393.578V14.625H388.891V9.9375ZM374.828 14.625H379.516V19.3125H374.828V14.625ZM388.891 14.625H393.578V19.3125H388.891V14.625ZM374.828 19.3125H379.516V24H374.828V19.3125ZM379.516 19.3125H384.203V24H379.516V19.3125ZM384.203 19.3125H388.891V24H384.203V19.3125ZM388.891 19.3125H393.578V24H388.891V19.3125ZM418.047 0.5625H422.734V5.25H418.047V0.5625ZM418.047 5.25H422.734V9.9375H418.047V5.25ZM418.047 9.9375H422.734V14.625H418.047V9.9375ZM418.047 14.625H422.734V19.3125H418.047V14.625ZM418.047 19.3125H422.734V24H418.047V19.3125ZM422.734 19.3125H427.422V24H422.734V19.3125ZM427.422 19.3125H432.109V24H427.422V19.3125ZM437.266 0.5625H441.953V5.25H437.266V0.5625ZM441.953 0.5625H446.641V5.25H441.953V0.5625ZM446.641 0.5625H451.328V5.25H446.641V0.5625ZM451.328 0.5625H456.016V5.25H451.328V0.5625ZM437.266 5.25H441.953V9.9375H437.266V5.25ZM451.328 5.25H456.016V9.9375H451.328V5.25ZM437.266 9.9375H441.953V14.625H437.266V9.9375ZM451.328 9.9375H456.016V14.625H451.328V9.9375ZM437.266 14.625H441.953V19.3125H437.266V14.625ZM451.328 14.625H456.016V19.3125H451.328V14.625ZM437.266 19.3125H441.953V24H437.266V19.3125ZM441.953 19.3125H446.641V24H441.953V19.3125ZM446.641 19.3125H451.328V24H446.641V19.3125ZM451.328 19.3125H456.016V24H451.328V19.3125ZM461.266 0.5625H465.953V5.25H461.266V0.5625ZM465.953 0.5625H470.641V5.25H465.953V0.5625ZM470.641 0.5625H475.328V5.25H470.641V0.5625ZM475.328 0.5625H480.016V5.25H475.328V0.5625ZM461.266 5.25H465.953V9.9375H461.266V5.25ZM475.328 5.25H480.016V9.9375H475.328V5.25ZM461.266 9.9375H465.953V14.625H461.266V9.9375ZM461.266 14.625H465.953V19.3125H461.266V14.625ZM475.328 14.625H480.016V19.3125H475.328V14.625ZM461.266 19.3125H465.953V24H461.266V19.3125ZM465.953 19.3125H470.641V24H465.953V19.3125ZM470.641 19.3125H475.328V24H470.641V19.3125ZM475.328 19.3125H480.016V24H475.328V19.3125ZM485.266 0.5625H489.953V5.25H485.266V0.5625ZM489.953 0.5625H494.641V5.25H489.953V0.5625ZM494.641 0.5625H499.328V5.25H494.641V0.5625ZM499.328 0.5625H504.016V5.25H499.328V0.5625ZM485.266 5.25H489.953V9.9375H485.266V5.25ZM499.328 5.25H504.016V9.9375H499.328V5.25ZM485.266 9.9375H489.953V14.625H485.266V9.9375ZM489.953 9.9375H494.641V14.625H489.953V9.9375ZM494.641 9.9375H499.328V14.625H494.641V9.9375ZM499.328 9.9375H504.016V14.625H499.328V9.9375ZM485.266 14.625H489.953V19.3125H485.266V14.625ZM499.328 14.625H504.016V19.3125H499.328V14.625ZM485.266 19.3125H489.953V24H485.266V19.3125ZM499.328 19.3125H504.016V24H499.328V19.3125ZM509.266 0.5625H513.953V5.25H509.266V0.5625ZM509.266 5.25H513.953V9.9375H509.266V5.25ZM509.266 9.9375H513.953V14.625H509.266V9.9375ZM509.266 14.625H513.953V19.3125H509.266V14.625ZM509.266 19.3125H513.953V24H509.266V19.3125ZM513.953 19.3125H518.641V24H513.953V19.3125ZM518.641 19.3125H523.328V24H518.641V19.3125ZM528.484 0.5625H533.172V5.25H528.484V0.5625ZM528.484 5.25H533.172V9.9375H528.484V5.25ZM528.484 9.9375H533.172V14.625H528.484V9.9375ZM528.484 14.625H533.172V19.3125H528.484V14.625ZM528.484 19.3125H533.172V24H528.484V19.3125ZM533.172 19.3125H537.859V24H533.172V19.3125ZM537.859 19.3125H542.547V24H537.859V19.3125ZM547.703 0.5625H552.391V5.25H547.703V0.5625ZM561.766 0.5625H566.453V5.25H561.766V0.5625ZM547.703 5.25H552.391V9.9375H547.703V5.25ZM561.766 5.25H566.453V9.9375H561.766V5.25ZM547.703 9.9375H552.391V14.625H547.703V9.9375ZM552.391 9.9375H557.078V14.625H552.391V9.9375ZM557.078 9.9375H561.766V14.625H557.078V9.9375ZM561.766 9.9375H566.453V14.625H561.766V9.9375ZM561.766 14.625H566.453V19.3125H561.766V14.625ZM547.703 19.3125H552.391V24H547.703V19.3125ZM552.391 19.3125H557.078V24H552.391V19.3125ZM557.078 19.3125H561.766V24H557.078V19.3125ZM561.766 19.3125H566.453V24H561.766V19.3125Z" fill="#F5F5F5"/>
</g>
<defs>
<filter id="filter0_d_205_300" x="0.296875" y="0.5625" width="569.156" height="26.4375" filterUnits="userSpaceOnUse" color-interpolation-filters="sRGB">
<feFlood flood-opacity="0" result="BackgroundImageFix"/>
<feColorMatrix in="SourceAlpha" type="matrix" values="0 0 0 0 0 0 0 0 0 0 0 0 0 0 0 0 0 0 127 0" result="hardAlpha"/>
<feOffset dx="3" dy="3"/>
<feComposite in2="hardAlpha" operator="out"/>
<feColorMatrix type="matrix" values="0 0 0 0 0.156863 0 0 0 0 0.156863 0 0 0 0 0.156863 0 0 0 1 0"/>
<feBlend mode="normal" in2="BackgroundImageFix" result="effect1_dropShadow_205_300"/>
<feBlend mode="normal" in="SourceGraphic" in2="effect1_dropShadow_205_300" result="shape"/>
</filter>
</defs>
</svg>
