<svg width="459" height="103" viewBox="0 0 459 103" fill="none" xmlns="http://www.w3.org/2000/svg">
<path d="M84.0391 16.5625H88.7266V21.25H84.0391V16.5625ZM98.1016 16.5625H102.789V21.25H98.1016V16.5625ZM84.0391 21.25H88.7266V25.9375H84.0391V21.25ZM98.1016 21.25H102.789V25.9375H98.1016V21.25ZM84.0391 25.9375H88.7266V30.625H84.0391V25.9375ZM88.7266 25.9375H93.4141V30.625H88.7266V25.9375ZM93.4141 25.9375H98.1016V30.625H93.4141V25.9375ZM98.1016 25.9375H102.789V30.625H98.1016V25.9375ZM84.0391 30.625H88.7266V35.3125H84.0391V30.625ZM98.1016 30.625H102.789V35.3125H98.1016V30.625ZM84.0391 35.3125H88.7266V40H84.0391V35.3125ZM98.1016 35.3125H102.789V40H98.1016V35.3125ZM108.039 16.5625H112.727V21.25H108.039V16.5625ZM112.727 16.5625H117.414V21.25H112.727V16.5625ZM117.414 16.5625H122.102V21.25H117.414V16.5625ZM122.102 16.5625H126.789V21.25H122.102V16.5625ZM108.039 21.25H112.727V25.9375H108.039V21.25ZM108.039 25.9375H112.727V30.625H108.039V25.9375ZM112.727 25.9375H117.414V30.625H112.727V25.9375ZM117.414 25.9375H122.102V30.625H117.414V25.9375ZM108.039 30.625H112.727V35.3125H108.039V30.625ZM108.039 35.3125H112.727V40H108.039V35.3125ZM112.727 35.3125H117.414V40H112.727V35.3125ZM117.414 35.3125H122.102V40H117.414V35.3125ZM122.102 35.3125H126.789V40H122.102V35.3125ZM132.039 16.5625H136.727V21.25H132.039V16.5625ZM132.039 21.25H136.727V25.9375H132.039V21.25ZM132.039 25.9375H136.727V30.625H132.039V25.9375ZM132.039 30.625H136.727V35.3125H132.039V30.625ZM132.039 35.3125H136.727V40H132.039V35.3125ZM136.727 35.3125H141.414V40H136.727V35.3125ZM141.414 35.3125H146.102V40H141.414V35.3125ZM151.258 16.5625H155.945V21.25H151.258V16.5625ZM151.258 21.25H155.945V25.9375H151.258V21.25ZM151.258 25.9375H155.945V30.625H151.258V25.9375ZM151.258 30.625H155.945V35.3125H151.258V30.625ZM151.258 35.3125H155.945V40H151.258V35.3125ZM155.945 35.3125H160.633V40H155.945V35.3125ZM160.633 35.3125H165.32V40H160.633V35.3125ZM170.477 16.5625H175.164V21.25H170.477V16.5625ZM175.164 16.5625H179.852V21.25H175.164V16.5625ZM179.852 16.5625H184.539V21.25H179.852V16.5625ZM184.539 16.5625H189.227V21.25H184.539V16.5625ZM170.477 21.25H175.164V25.9375H170.477V21.25ZM184.539 21.25H189.227V25.9375H184.539V21.25ZM170.477 25.9375H175.164V30.625H170.477V25.9375ZM184.539 25.9375H189.227V30.625H184.539V25.9375ZM170.477 30.625H175.164V35.3125H170.477V30.625ZM184.539 30.625H189.227V35.3125H184.539V30.625ZM170.477 35.3125H175.164V40H170.477V35.3125ZM175.164 35.3125H179.852V40H175.164V35.3125ZM179.852 35.3125H184.539V40H179.852V35.3125ZM184.539 35.3125H189.227V40H184.539V35.3125ZM213.695 16.5625H218.383V21.25H213.695V16.5625ZM223.07 16.5625H227.758V21.25H223.07V16.5625ZM213.695 21.25H218.383V25.9375H213.695V21.25ZM223.07 21.25H227.758V25.9375H223.07V21.25ZM213.695 25.9375H218.383V30.625H213.695V25.9375ZM223.07 25.9375H227.758V30.625H223.07V25.9375ZM213.695 30.625H218.383V35.3125H213.695V30.625ZM223.07 30.625H227.758V35.3125H223.07V30.625ZM218.383 35.3125H223.07V40H218.383V35.3125ZM232.914 16.5625H237.602V21.25H232.914V16.5625ZM237.602 16.5625H242.289V21.25H237.602V16.5625ZM242.289 16.5625H246.977V21.25H242.289V16.5625ZM237.602 21.25H242.289V25.9375H237.602V21.25ZM237.602 25.9375H242.289V30.625H237.602V25.9375ZM237.602 30.625H242.289V35.3125H237.602V30.625ZM232.914 35.3125H237.602V40H232.914V35.3125ZM237.602 35.3125H242.289V40H237.602V35.3125ZM242.289 35.3125H246.977V40H242.289V35.3125ZM252.133 16.5625H256.82V21.25H252.133V16.5625ZM256.82 16.5625H261.508V21.25H256.82V16.5625ZM261.508 16.5625H266.195V21.25H261.508V16.5625ZM266.195 16.5625H270.883V21.25H266.195V16.5625ZM252.133 21.25H256.82V25.9375H252.133V21.25ZM252.133 25.9375H256.82V30.625H252.133V25.9375ZM256.82 25.9375H261.508V30.625H256.82V25.9375ZM261.508 25.9375H266.195V30.625H261.508V25.9375ZM266.195 25.9375H270.883V30.625H266.195V25.9375ZM266.195 30.625H270.883V35.3125H266.195V30.625ZM252.133 35.3125H256.82V40H252.133V35.3125ZM256.82 35.3125H261.508V40H256.82V35.3125ZM261.508 35.3125H266.195V40H261.508V35.3125ZM266.195 35.3125H270.883V40H266.195V35.3125ZM276.133 16.5625H280.82V21.25H276.133V16.5625ZM280.82 16.5625H285.508V21.25H280.82V16.5625ZM285.508 16.5625H290.195V21.25H285.508V16.5625ZM280.82 21.25H285.508V25.9375H280.82V21.25ZM280.82 25.9375H285.508V30.625H280.82V25.9375ZM280.82 30.625H285.508V35.3125H280.82V30.625ZM276.133 35.3125H280.82V40H276.133V35.3125ZM280.82 35.3125H285.508V40H280.82V35.3125ZM285.508 35.3125H290.195V40H285.508V35.3125ZM295.352 16.5625H300.039V21.25H295.352V16.5625ZM300.039 16.5625H304.727V21.25H300.039V16.5625ZM304.727 16.5625H309.414V21.25H304.727V16.5625ZM300.039 21.25H304.727V25.9375H300.039V21.25ZM300.039 25.9375H304.727V30.625H300.039V25.9375ZM300.039 30.625H304.727V35.3125H300.039V30.625ZM300.039 35.3125H304.727V40H300.039V35.3125ZM314.57 16.5625H319.258V21.25H314.57V16.5625ZM319.258 16.5625H323.945V21.25H319.258V16.5625ZM323.945 16.5625H328.633V21.25H323.945V16.5625ZM328.633 16.5625H333.32V21.25H328.633V16.5625ZM314.57 21.25H319.258V25.9375H314.57V21.25ZM328.633 21.25H333.32V25.9375H328.633V21.25ZM314.57 25.9375H319.258V30.625H314.57V25.9375ZM328.633 25.9375H333.32V30.625H328.633V25.9375ZM314.57 30.625H319.258V35.3125H314.57V30.625ZM328.633 30.625H333.32V35.3125H328.633V30.625ZM314.57 35.3125H319.258V40H314.57V35.3125ZM319.258 35.3125H323.945V40H319.258V35.3125ZM323.945 35.3125H328.633V40H323.945V35.3125ZM328.633 35.3125H333.32V40H328.633V35.3125ZM338.57 16.5625H343.258V21.25H338.57V16.5625ZM343.258 16.5625H347.945V21.25H343.258V16.5625ZM347.945 16.5625H352.633V21.25H347.945V16.5625ZM352.633 16.5625H357.32V21.25H352.633V16.5625ZM338.57 21.25H343.258V25.9375H338.57V21.25ZM352.633 21.25H357.32V25.9375H352.633V21.25ZM338.57 25.9375H343.258V30.625H338.57V25.9375ZM343.258 25.9375H347.945V30.625H343.258V25.9375ZM347.945 25.9375H352.633V30.625H347.945V25.9375ZM352.633 25.9375H357.32V30.625H352.633V25.9375ZM338.57 30.625H343.258V35.3125H338.57V30.625ZM347.945 30.625H352.633V35.3125H347.945V30.625ZM338.57 35.3125H343.258V40H338.57V35.3125ZM347.945 35.3125H352.633V40H347.945V35.3125ZM352.633 35.3125H357.32V40H352.633V35.3125ZM367.258 16.5625H371.945V21.25H367.258V16.5625ZM367.258 21.25H371.945V25.9375H367.258V21.25ZM367.258 25.9375H371.945V30.625H367.258V25.9375ZM367.258 35.3125H371.945V40H367.258V35.3125ZM2.42969 69.5625H7.11719V74.25H2.42969V69.5625ZM7.11719 69.5625H11.8047V74.25H7.11719V69.5625ZM11.8047 69.5625H16.4922V74.25H11.8047V69.5625ZM7.11719 74.25H11.8047V78.9375H7.11719V74.25ZM7.11719 78.9375H11.8047V83.625H7.11719V78.9375ZM7.11719 83.625H11.8047V88.3125H7.11719V83.625ZM7.11719 88.3125H11.8047V93H7.11719V88.3125ZM21.6484 69.5625H26.3359V74.25H21.6484V69.5625ZM35.7109 69.5625H40.3984V74.25H35.7109V69.5625ZM21.6484 74.25H26.3359V78.9375H21.6484V74.25ZM35.7109 74.25H40.3984V78.9375H35.7109V74.25ZM21.6484 78.9375H26.3359V83.625H21.6484V78.9375ZM26.3359 78.9375H31.0234V83.625H26.3359V78.9375ZM31.0234 78.9375H35.7109V83.625H31.0234V78.9375ZM35.7109 78.9375H40.3984V83.625H35.7109V78.9375ZM21.6484 83.625H26.3359V88.3125H21.6484V83.625ZM35.7109 83.625H40.3984V88.3125H35.7109V83.625ZM21.6484 88.3125H26.3359V93H21.6484V88.3125ZM35.7109 88.3125H40.3984V93H35.7109V88.3125ZM45.6484 69.5625H50.3359V74.25H45.6484V69.5625ZM50.3359 69.5625H55.0234V74.25H50.3359V69.5625ZM55.0234 69.5625H59.7109V74.25H55.0234V69.5625ZM50.3359 74.25H55.0234V78.9375H50.3359V74.25ZM50.3359 78.9375H55.0234V83.625H50.3359V78.9375ZM50.3359 83.625H55.0234V88.3125H50.3359V83.625ZM45.6484 88.3125H50.3359V93H45.6484V88.3125ZM50.3359 88.3125H55.0234V93H50.3359V88.3125ZM55.0234 88.3125H59.7109V93H55.0234V88.3125ZM64.8672 69.5625H69.5547V74.25H64.8672V69.5625ZM69.5547 69.5625H74.2422V74.25H69.5547V69.5625ZM74.2422 69.5625H78.9297V74.25H74.2422V69.5625ZM78.9297 69.5625H83.6172V74.25H78.9297V69.5625ZM64.8672 74.25H69.5547V78.9375H64.8672V74.25ZM64.8672 78.9375H69.5547V83.625H64.8672V78.9375ZM69.5547 78.9375H74.2422V83.625H69.5547V78.9375ZM74.2422 78.9375H78.9297V83.625H74.2422V78.9375ZM78.9297 78.9375H83.6172V83.625H78.9297V78.9375ZM78.9297 83.625H83.6172V88.3125H78.9297V83.625ZM64.8672 88.3125H69.5547V93H64.8672V88.3125ZM69.5547 88.3125H74.2422V93H69.5547V88.3125ZM74.2422 88.3125H78.9297V93H74.2422V88.3125ZM78.9297 88.3125H83.6172V93H78.9297V88.3125ZM108.086 69.5625H112.773V74.25H108.086V69.5625ZM112.773 69.5625H117.461V74.25H112.773V69.5625ZM117.461 69.5625H122.148V74.25H117.461V69.5625ZM112.773 74.25H117.461V78.9375H112.773V74.25ZM112.773 78.9375H117.461V83.625H112.773V78.9375ZM112.773 83.625H117.461V88.3125H112.773V83.625ZM108.086 88.3125H112.773V93H108.086V88.3125ZM112.773 88.3125H117.461V93H112.773V88.3125ZM117.461 88.3125H122.148V93H117.461V88.3125ZM127.305 69.5625H131.992V74.25H127.305V69.5625ZM131.992 69.5625H136.68V74.25H131.992V69.5625ZM136.68 69.5625H141.367V74.25H136.68V69.5625ZM141.367 69.5625H146.055V74.25H141.367V69.5625ZM127.305 74.25H131.992V78.9375H127.305V74.25ZM127.305 78.9375H131.992V83.625H127.305V78.9375ZM131.992 78.9375H136.68V83.625H131.992V78.9375ZM136.68 78.9375H141.367V83.625H136.68V78.9375ZM141.367 78.9375H146.055V83.625H141.367V78.9375ZM141.367 83.625H146.055V88.3125H141.367V83.625ZM127.305 88.3125H131.992V93H127.305V88.3125ZM131.992 88.3125H136.68V93H131.992V88.3125ZM136.68 88.3125H141.367V93H136.68V88.3125ZM141.367 88.3125H146.055V93H141.367V88.3125ZM170.523 69.5625H175.211V74.25H170.523V69.5625ZM189.273 69.5625H193.961V74.25H189.273V69.5625ZM170.523 74.25H175.211V78.9375H170.523V74.25ZM175.211 74.25H179.898V78.9375H175.211V74.25ZM184.586 74.25H189.273V78.9375H184.586V74.25ZM189.273 74.25H193.961V78.9375H189.273V74.25ZM170.523 78.9375H175.211V83.625H170.523V78.9375ZM179.898 78.9375H184.586V83.625H179.898V78.9375ZM189.273 78.9375H193.961V83.625H189.273V78.9375ZM170.523 83.625H175.211V88.3125H170.523V83.625ZM189.273 83.625H193.961V88.3125H189.273V83.625ZM170.523 88.3125H175.211V93H170.523V88.3125ZM189.273 88.3125H193.961V93H189.273V88.3125ZM199.305 69.5625H203.992V74.25H199.305V69.5625ZM213.367 69.5625H218.055V74.25H213.367V69.5625ZM199.305 74.25H203.992V78.9375H199.305V74.25ZM213.367 74.25H218.055V78.9375H213.367V74.25ZM199.305 78.9375H203.992V83.625H199.305V78.9375ZM203.992 78.9375H208.68V83.625H203.992V78.9375ZM208.68 78.9375H213.367V83.625H208.68V78.9375ZM213.367 78.9375H218.055V83.625H213.367V78.9375ZM213.367 83.625H218.055V88.3125H213.367V83.625ZM199.305 88.3125H203.992V93H199.305V88.3125ZM203.992 88.3125H208.68V93H203.992V88.3125ZM208.68 88.3125H213.367V93H208.68V88.3125ZM213.367 88.3125H218.055V93H213.367V88.3125ZM242.523 69.5625H247.211V74.25H242.523V69.5625ZM247.211 69.5625H251.898V74.25H247.211V69.5625ZM251.898 69.5625H256.586V74.25H251.898V69.5625ZM256.586 69.5625H261.273V74.25H256.586V69.5625ZM242.523 74.25H247.211V78.9375H242.523V74.25ZM256.586 74.25H261.273V78.9375H256.586V74.25ZM242.523 78.9375H247.211V83.625H242.523V78.9375ZM247.211 78.9375H251.898V83.625H247.211V78.9375ZM251.898 78.9375H256.586V83.625H251.898V78.9375ZM256.586 78.9375H261.273V83.625H256.586V78.9375ZM242.523 83.625H247.211V88.3125H242.523V83.625ZM242.523 88.3125H247.211V93H242.523V88.3125ZM266.523 69.5625H271.211V74.25H266.523V69.5625ZM271.211 69.5625H275.898V74.25H271.211V69.5625ZM275.898 69.5625H280.586V74.25H275.898V69.5625ZM280.586 69.5625H285.273V74.25H280.586V69.5625ZM266.523 74.25H271.211V78.9375H266.523V74.25ZM280.586 74.25H285.273V78.9375H280.586V74.25ZM266.523 78.9375H271.211V83.625H266.523V78.9375ZM280.586 78.9375H285.273V83.625H280.586V78.9375ZM266.523 83.625H271.211V88.3125H266.523V83.625ZM280.586 83.625H285.273V88.3125H280.586V83.625ZM266.523 88.3125H271.211V93H266.523V88.3125ZM271.211 88.3125H275.898V93H271.211V88.3125ZM275.898 88.3125H280.586V93H275.898V88.3125ZM280.586 88.3125H285.273V93H280.586V88.3125ZM290.523 69.5625H295.211V74.25H290.523V69.5625ZM295.211 69.5625H299.898V74.25H295.211V69.5625ZM299.898 69.5625H304.586V74.25H299.898V69.5625ZM304.586 69.5625H309.273V74.25H304.586V69.5625ZM290.523 74.25H295.211V78.9375H290.523V74.25ZM304.586 74.25H309.273V78.9375H304.586V74.25ZM290.523 78.9375H295.211V83.625H290.523V78.9375ZM295.211 78.9375H299.898V83.625H295.211V78.9375ZM299.898 78.9375H304.586V83.625H299.898V78.9375ZM304.586 78.9375H309.273V83.625H304.586V78.9375ZM290.523 83.625H295.211V88.3125H290.523V83.625ZM299.898 83.625H304.586V88.3125H299.898V83.625ZM290.523 88.3125H295.211V93H290.523V88.3125ZM299.898 88.3125H304.586V93H299.898V88.3125ZM304.586 88.3125H309.273V93H304.586V88.3125ZM314.523 69.5625H319.211V74.25H314.523V69.5625ZM319.211 69.5625H323.898V74.25H319.211V69.5625ZM323.898 69.5625H328.586V74.25H323.898V69.5625ZM319.211 74.25H323.898V78.9375H319.211V74.25ZM319.211 78.9375H323.898V83.625H319.211V78.9375ZM319.211 83.625H323.898V88.3125H319.211V83.625ZM319.211 88.3125H323.898V93H319.211V88.3125ZM333.742 69.5625H338.43V74.25H333.742V69.5625ZM338.43 69.5625H343.117V74.25H338.43V69.5625ZM343.117 69.5625H347.805V74.25H343.117V69.5625ZM347.805 69.5625H352.492V74.25H347.805V69.5625ZM333.742 74.25H338.43V78.9375H333.742V74.25ZM333.742 78.9375H338.43V83.625H333.742V78.9375ZM338.43 78.9375H343.117V83.625H338.43V78.9375ZM343.117 78.9375H347.805V83.625H343.117V78.9375ZM333.742 83.625H338.43V88.3125H333.742V83.625ZM333.742 88.3125H338.43V93H333.742V88.3125ZM357.742 69.5625H362.43V74.25H357.742V69.5625ZM362.43 69.5625H367.117V74.25H362.43V69.5625ZM367.117 69.5625H371.805V74.25H367.117V69.5625ZM371.805 69.5625H376.492V74.25H371.805V69.5625ZM357.742 74.25H362.43V78.9375H357.742V74.25ZM371.805 74.25H376.492V78.9375H371.805V74.25ZM357.742 78.9375H362.43V83.625H357.742V78.9375ZM371.805 78.9375H376.492V83.625H371.805V78.9375ZM357.742 83.625H362.43V88.3125H357.742V83.625ZM371.805 83.625H376.492V88.3125H371.805V83.625ZM357.742 88.3125H362.43V93H357.742V88.3125ZM362.43 88.3125H367.117V93H362.43V88.3125ZM367.117 88.3125H371.805V93H367.117V88.3125ZM371.805 88.3125H376.492V93H371.805V88.3125ZM381.742 69.5625H386.43V74.25H381.742V69.5625ZM381.742 74.25H386.43V78.9375H381.742V74.25ZM381.742 78.9375H386.43V83.625H381.742V78.9375ZM381.742 83.625H386.43V88.3125H381.742V83.625ZM381.742 88.3125H386.43V93H381.742V88.3125ZM386.43 88.3125H391.117V93H386.43V88.3125ZM391.117 88.3125H395.805V93H391.117V88.3125ZM400.961 69.5625H405.648V74.25H400.961V69.5625ZM405.648 69.5625H410.336V74.25H405.648V69.5625ZM410.336 69.5625H415.023V74.25H410.336V69.5625ZM405.648 74.25H410.336V78.9375H405.648V74.25ZM405.648 78.9375H410.336V83.625H405.648V78.9375ZM405.648 83.625H410.336V88.3125H405.648V83.625ZM400.961 88.3125H405.648V93H400.961V88.3125ZM405.648 88.3125H410.336V93H405.648V88.3125ZM410.336 88.3125H415.023V93H410.336V88.3125ZM420.18 69.5625H424.867V74.25H420.18V69.5625ZM424.867 69.5625H429.555V74.25H424.867V69.5625ZM429.555 69.5625H434.242V74.25H429.555V69.5625ZM434.242 69.5625H438.93V74.25H434.242V69.5625ZM420.18 74.25H424.867V78.9375H420.18V74.25ZM434.242 74.25H438.93V78.9375H434.242V74.25ZM420.18 78.9375H424.867V83.625H420.18V78.9375ZM434.242 78.9375H438.93V83.625H434.242V78.9375ZM420.18 83.625H424.867V88.3125H420.18V83.625ZM434.242 83.625H438.93V88.3125H434.242V83.625ZM420.18 88.3125H424.867V93H420.18V88.3125ZM424.867 88.3125H429.555V93H424.867V88.3125ZM429.555 88.3125H434.242V93H429.555V88.3125ZM434.242 88.3125H438.93V93H434.242V88.3125ZM448.867 88.3125H453.555V93H448.867V88.3125Z" fill="#282828"/>
<path d="M82.0391 14.5625H86.7266V19.25H82.0391V14.5625ZM96.1016 14.5625H100.789V19.25H96.1016V14.5625ZM82.0391 19.25H86.7266V23.9375H82.0391V19.25ZM96.1016 19.25H100.789V23.9375H96.1016V19.25ZM82.0391 23.9375H86.7266V28.625H82.0391V23.9375ZM86.7266 23.9375H91.4141V28.625H86.7266V23.9375ZM91.4141 23.9375H96.1016V28.625H91.4141V23.9375ZM96.1016 23.9375H100.789V28.625H96.1016V23.9375ZM82.0391 28.625H86.7266V33.3125H82.0391V28.625ZM96.1016 28.625H100.789V33.3125H96.1016V28.625ZM82.0391 33.3125H86.7266V38H82.0391V33.3125ZM96.1016 33.3125H100.789V38H96.1016V33.3125ZM106.039 14.5625H110.727V19.25H106.039V14.5625ZM110.727 14.5625H115.414V19.25H110.727V14.5625ZM115.414 14.5625H120.102V19.25H115.414V14.5625ZM120.102 14.5625H124.789V19.25H120.102V14.5625ZM106.039 19.25H110.727V23.9375H106.039V19.25ZM106.039 23.9375H110.727V28.625H106.039V23.9375ZM110.727 23.9375H115.414V28.625H110.727V23.9375ZM115.414 23.9375H120.102V28.625H115.414V23.9375ZM106.039 28.625H110.727V33.3125H106.039V28.625ZM106.039 33.3125H110.727V38H106.039V33.3125ZM110.727 33.3125H115.414V38H110.727V33.3125ZM115.414 33.3125H120.102V38H115.414V33.3125ZM120.102 33.3125H124.789V38H120.102V33.3125ZM130.039 14.5625H134.727V19.25H130.039V14.5625ZM130.039 19.25H134.727V23.9375H130.039V19.25ZM130.039 23.9375H134.727V28.625H130.039V23.9375ZM130.039 28.625H134.727V33.3125H130.039V28.625ZM130.039 33.3125H134.727V38H130.039V33.3125ZM134.727 33.3125H139.414V38H134.727V33.3125ZM139.414 33.3125H144.102V38H139.414V33.3125ZM149.258 14.5625H153.945V19.25H149.258V14.5625ZM149.258 19.25H153.945V23.9375H149.258V19.25ZM149.258 23.9375H153.945V28.625H149.258V23.9375ZM149.258 28.625H153.945V33.3125H149.258V28.625ZM149.258 33.3125H153.945V38H149.258V33.3125ZM153.945 33.3125H158.633V38H153.945V33.3125ZM158.633 33.3125H163.32V38H158.633V33.3125ZM168.477 14.5625H173.164V19.25H168.477V14.5625ZM173.164 14.5625H177.852V19.25H173.164V14.5625ZM177.852 14.5625H182.539V19.25H177.852V14.5625ZM182.539 14.5625H187.227V19.25H182.539V14.5625ZM168.477 19.25H173.164V23.9375H168.477V19.25ZM182.539 19.25H187.227V23.9375H182.539V19.25ZM168.477 23.9375H173.164V28.625H168.477V23.9375ZM182.539 23.9375H187.227V28.625H182.539V23.9375ZM168.477 28.625H173.164V33.3125H168.477V28.625ZM182.539 28.625H187.227V33.3125H182.539V28.625ZM168.477 33.3125H173.164V38H168.477V33.3125ZM173.164 33.3125H177.852V38H173.164V33.3125ZM177.852 33.3125H182.539V38H177.852V33.3125ZM182.539 33.3125H187.227V38H182.539V33.3125ZM211.695 14.5625H216.383V19.25H211.695V14.5625ZM221.07 14.5625H225.758V19.25H221.07V14.5625ZM211.695 19.25H216.383V23.9375H211.695V19.25ZM221.07 19.25H225.758V23.9375H221.07V19.25ZM211.695 23.9375H216.383V28.625H211.695V23.9375ZM221.07 23.9375H225.758V28.625H221.07V23.9375ZM211.695 28.625H216.383V33.3125H211.695V28.625ZM221.07 28.625H225.758V33.3125H221.07V28.625ZM216.383 33.3125H221.07V38H216.383V33.3125ZM230.914 14.5625H235.602V19.25H230.914V14.5625ZM235.602 14.5625H240.289V19.25H235.602V14.5625ZM240.289 14.5625H244.977V19.25H240.289V14.5625ZM235.602 19.25H240.289V23.9375H235.602V19.25ZM235.602 23.9375H240.289V28.625H235.602V23.9375ZM235.602 28.625H240.289V33.3125H235.602V28.625ZM230.914 33.3125H235.602V38H230.914V33.3125ZM235.602 33.3125H240.289V38H235.602V33.3125ZM240.289 33.3125H244.977V38H240.289V33.3125ZM250.133 14.5625H254.82V19.25H250.133V14.5625ZM254.82 14.5625H259.508V19.25H254.82V14.5625ZM259.508 14.5625H264.195V19.25H259.508V14.5625ZM264.195 14.5625H268.883V19.25H264.195V14.5625ZM250.133 19.25H254.82V23.9375H250.133V19.25ZM250.133 23.9375H254.82V28.625H250.133V23.9375ZM254.82 23.9375H259.508V28.625H254.82V23.9375ZM259.508 23.9375H264.195V28.625H259.508V23.9375ZM264.195 23.9375H268.883V28.625H264.195V23.9375ZM264.195 28.625H268.883V33.3125H264.195V28.625ZM250.133 33.3125H254.82V38H250.133V33.3125ZM254.82 33.3125H259.508V38H254.82V33.3125ZM259.508 33.3125H264.195V38H259.508V33.3125ZM264.195 33.3125H268.883V38H264.195V33.3125ZM274.133 14.5625H278.82V19.25H274.133V14.5625ZM278.82 14.5625H283.508V19.25H278.82V14.5625ZM283.508 14.5625H288.195V19.25H283.508V14.5625ZM278.82 19.25H283.508V23.9375H278.82V19.25ZM278.82 23.9375H283.508V28.625H278.82V23.9375ZM278.82 28.625H283.508V33.3125H278.82V28.625ZM274.133 33.3125H278.82V38H274.133V33.3125ZM278.82 33.3125H283.508V38H278.82V33.3125ZM283.508 33.3125H288.195V38H283.508V33.3125ZM293.352 14.5625H298.039V19.25H293.352V14.5625ZM298.039 14.5625H302.727V19.25H298.039V14.5625ZM302.727 14.5625H307.414V19.25H302.727V14.5625ZM298.039 19.25H302.727V23.9375H298.039V19.25ZM298.039 23.9375H302.727V28.625H298.039V23.9375ZM298.039 28.625H302.727V33.3125H298.039V28.625ZM298.039 33.3125H302.727V38H298.039V33.3125ZM312.57 14.5625H317.258V19.25H312.57V14.5625ZM317.258 14.5625H321.945V19.25H317.258V14.5625ZM321.945 14.5625H326.633V19.25H321.945V14.5625ZM326.633 14.5625H331.32V19.25H326.633V14.5625ZM312.57 19.25H317.258V23.9375H312.57V19.25ZM326.633 19.25H331.32V23.9375H326.633V19.25ZM312.57 23.9375H317.258V28.625H312.57V23.9375ZM326.633 23.9375H331.32V28.625H326.633V23.9375ZM312.57 28.625H317.258V33.3125H312.57V28.625ZM326.633 28.625H331.32V33.3125H326.633V28.625ZM312.57 33.3125H317.258V38H312.57V33.3125ZM317.258 33.3125H321.945V38H317.258V33.3125ZM321.945 33.3125H326.633V38H321.945V33.3125ZM326.633 33.3125H331.32V38H326.633V33.3125ZM336.57 14.5625H341.258V19.25H336.57V14.5625ZM341.258 14.5625H345.945V19.25H341.258V14.5625ZM345.945 14.5625H350.633V19.25H345.945V14.5625ZM350.633 14.5625H355.32V19.25H350.633V14.5625ZM336.57 19.25H341.258V23.9375H336.57V19.25ZM350.633 19.25H355.32V23.9375H350.633V19.25ZM336.57 23.9375H341.258V28.625H336.57V23.9375ZM341.258 23.9375H345.945V28.625H341.258V23.9375ZM345.945 23.9375H350.633V28.625H345.945V23.9375ZM350.633 23.9375H355.32V28.625H350.633V23.9375ZM336.57 28.625H341.258V33.3125H336.57V28.625ZM345.945 28.625H350.633V33.3125H345.945V28.625ZM336.57 33.3125H341.258V38H336.57V33.3125ZM345.945 33.3125H350.633V38H345.945V33.3125ZM350.633 33.3125H355.32V38H350.633V33.3125ZM365.258 14.5625H369.945V19.25H365.258V14.5625ZM365.258 19.25H369.945V23.9375H365.258V19.25ZM365.258 23.9375H369.945V28.625H365.258V23.9375ZM365.258 33.3125H369.945V38H365.258V33.3125ZM0.429688 67.5625H5.11719V72.25H0.429688V67.5625ZM5.11719 67.5625H9.80469V72.25H5.11719V67.5625ZM9.80469 67.5625H14.4922V72.25H9.80469V67.5625ZM5.11719 72.25H9.80469V76.9375H5.11719V72.25ZM5.11719 76.9375H9.80469V81.625H5.11719V76.9375ZM5.11719 81.625H9.80469V86.3125H5.11719V81.625ZM5.11719 86.3125H9.80469V91H5.11719V86.3125ZM19.6484 67.5625H24.3359V72.25H19.6484V67.5625ZM33.7109 67.5625H38.3984V72.25H33.7109V67.5625ZM19.6484 72.25H24.3359V76.9375H19.6484V72.25ZM33.7109 72.25H38.3984V76.9375H33.7109V72.25ZM19.6484 76.9375H24.3359V81.625H19.6484V76.9375ZM24.3359 76.9375H29.0234V81.625H24.3359V76.9375ZM29.0234 76.9375H33.7109V81.625H29.0234V76.9375ZM33.7109 76.9375H38.3984V81.625H33.7109V76.9375ZM19.6484 81.625H24.3359V86.3125H19.6484V81.625ZM33.7109 81.625H38.3984V86.3125H33.7109V81.625ZM19.6484 86.3125H24.3359V91H19.6484V86.3125ZM33.7109 86.3125H38.3984V91H33.7109V86.3125ZM43.6484 67.5625H48.3359V72.25H43.6484V67.5625ZM48.3359 67.5625H53.0234V72.25H48.3359V67.5625ZM53.0234 67.5625H57.7109V72.25H53.0234V67.5625ZM48.3359 72.25H53.0234V76.9375H48.3359V72.25ZM48.3359 76.9375H53.0234V81.625H48.3359V76.9375ZM48.3359 81.625H53.0234V86.3125H48.3359V81.625ZM43.6484 86.3125H48.3359V91H43.6484V86.3125ZM48.3359 86.3125H53.0234V91H48.3359V86.3125ZM53.0234 86.3125H57.7109V91H53.0234V86.3125ZM62.8672 67.5625H67.5547V72.25H62.8672V67.5625ZM67.5547 67.5625H72.2422V72.25H67.5547V67.5625ZM72.2422 67.5625H76.9297V72.25H72.2422V67.5625ZM76.9297 67.5625H81.6172V72.25H76.9297V67.5625ZM62.8672 72.25H67.5547V76.9375H62.8672V72.25ZM62.8672 76.9375H67.5547V81.625H62.8672V76.9375ZM67.5547 76.9375H72.2422V81.625H67.5547V76.9375ZM72.2422 76.9375H76.9297V81.625H72.2422V76.9375ZM76.9297 76.9375H81.6172V81.625H76.9297V76.9375ZM76.9297 81.625H81.6172V86.3125H76.9297V81.625ZM62.8672 86.3125H67.5547V91H62.8672V86.3125ZM67.5547 86.3125H72.2422V91H67.5547V86.3125ZM72.2422 86.3125H76.9297V91H72.2422V86.3125ZM76.9297 86.3125H81.6172V91H76.9297V86.3125ZM106.086 67.5625H110.773V72.25H106.086V67.5625ZM110.773 67.5625H115.461V72.25H110.773V67.5625ZM115.461 67.5625H120.148V72.25H115.461V67.5625ZM110.773 72.25H115.461V76.9375H110.773V72.25ZM110.773 76.9375H115.461V81.625H110.773V76.9375ZM110.773 81.625H115.461V86.3125H110.773V81.625ZM106.086 86.3125H110.773V91H106.086V86.3125ZM110.773 86.3125H115.461V91H110.773V86.3125ZM115.461 86.3125H120.148V91H115.461V86.3125ZM125.305 67.5625H129.992V72.25H125.305V67.5625ZM129.992 67.5625H134.68V72.25H129.992V67.5625ZM134.68 67.5625H139.367V72.25H134.68V67.5625ZM139.367 67.5625H144.055V72.25H139.367V67.5625ZM125.305 72.25H129.992V76.9375H125.305V72.25ZM125.305 76.9375H129.992V81.625H125.305V76.9375ZM129.992 76.9375H134.68V81.625H129.992V76.9375ZM134.68 76.9375H139.367V81.625H134.68V76.9375ZM139.367 76.9375H144.055V81.625H139.367V76.9375ZM139.367 81.625H144.055V86.3125H139.367V81.625ZM125.305 86.3125H129.992V91H125.305V86.3125ZM129.992 86.3125H134.68V91H129.992V86.3125ZM134.68 86.3125H139.367V91H134.68V86.3125ZM139.367 86.3125H144.055V91H139.367V86.3125ZM168.523 67.5625H173.211V72.25H168.523V67.5625ZM187.273 67.5625H191.961V72.25H187.273V67.5625ZM168.523 72.25H173.211V76.9375H168.523V72.25ZM173.211 72.25H177.898V76.9375H173.211V72.25ZM182.586 72.25H187.273V76.9375H182.586V72.25ZM187.273 72.25H191.961V76.9375H187.273V72.25ZM168.523 76.9375H173.211V81.625H168.523V76.9375ZM177.898 76.9375H182.586V81.625H177.898V76.9375ZM187.273 76.9375H191.961V81.625H187.273V76.9375ZM168.523 81.625H173.211V86.3125H168.523V81.625ZM187.273 81.625H191.961V86.3125H187.273V81.625ZM168.523 86.3125H173.211V91H168.523V86.3125ZM187.273 86.3125H191.961V91H187.273V86.3125ZM197.305 67.5625H201.992V72.25H197.305V67.5625ZM211.367 67.5625H216.055V72.25H211.367V67.5625ZM197.305 72.25H201.992V76.9375H197.305V72.25ZM211.367 72.25H216.055V76.9375H211.367V72.25ZM197.305 76.9375H201.992V81.625H197.305V76.9375ZM201.992 76.9375H206.68V81.625H201.992V76.9375ZM206.68 76.9375H211.367V81.625H206.68V76.9375ZM211.367 76.9375H216.055V81.625H211.367V76.9375ZM211.367 81.625H216.055V86.3125H211.367V81.625ZM197.305 86.3125H201.992V91H197.305V86.3125ZM201.992 86.3125H206.68V91H201.992V86.3125ZM206.68 86.3125H211.367V91H206.68V86.3125ZM211.367 86.3125H216.055V91H211.367V86.3125ZM240.523 67.5625H245.211V72.25H240.523V67.5625ZM245.211 67.5625H249.898V72.25H245.211V67.5625ZM249.898 67.5625H254.586V72.25H249.898V67.5625ZM254.586 67.5625H259.273V72.25H254.586V67.5625ZM240.523 72.25H245.211V76.9375H240.523V72.25ZM254.586 72.25H259.273V76.9375H254.586V72.25ZM240.523 76.9375H245.211V81.625H240.523V76.9375ZM245.211 76.9375H249.898V81.625H245.211V76.9375ZM249.898 76.9375H254.586V81.625H249.898V76.9375ZM254.586 76.9375H259.273V81.625H254.586V76.9375ZM240.523 81.625H245.211V86.3125H240.523V81.625ZM240.523 86.3125H245.211V91H240.523V86.3125ZM264.523 67.5625H269.211V72.25H264.523V67.5625ZM269.211 67.5625H273.898V72.25H269.211V67.5625ZM273.898 67.5625H278.586V72.25H273.898V67.5625ZM278.586 67.5625H283.273V72.25H278.586V67.5625ZM264.523 72.25H269.211V76.9375H264.523V72.25ZM278.586 72.25H283.273V76.9375H278.586V72.25ZM264.523 76.9375H269.211V81.625H264.523V76.9375ZM278.586 76.9375H283.273V81.625H278.586V76.9375ZM264.523 81.625H269.211V86.3125H264.523V81.625ZM278.586 81.625H283.273V86.3125H278.586V81.625ZM264.523 86.3125H269.211V91H264.523V86.3125ZM269.211 86.3125H273.898V91H269.211V86.3125ZM273.898 86.3125H278.586V91H273.898V86.3125ZM278.586 86.3125H283.273V91H278.586V86.3125ZM288.523 67.5625H293.211V72.25H288.523V67.5625ZM293.211 67.5625H297.898V72.25H293.211V67.5625ZM297.898 67.5625H302.586V72.25H297.898V67.5625ZM302.586 67.5625H307.273V72.25H302.586V67.5625ZM288.523 72.25H293.211V76.9375H288.523V72.25ZM302.586 72.25H307.273V76.9375H302.586V72.25ZM288.523 76.9375H293.211V81.625H288.523V76.9375ZM293.211 76.9375H297.898V81.625H293.211V76.9375ZM297.898 76.9375H302.586V81.625H297.898V76.9375ZM302.586 76.9375H307.273V81.625H302.586V76.9375ZM288.523 81.625H293.211V86.3125H288.523V81.625ZM297.898 81.625H302.586V86.3125H297.898V81.625ZM288.523 86.3125H293.211V91H288.523V86.3125ZM297.898 86.3125H302.586V91H297.898V86.3125ZM302.586 86.3125H307.273V91H302.586V86.3125ZM312.523 67.5625H317.211V72.25H312.523V67.5625ZM317.211 67.5625H321.898V72.25H317.211V67.5625ZM321.898 67.5625H326.586V72.25H321.898V67.5625ZM317.211 72.25H321.898V76.9375H317.211V72.25ZM317.211 76.9375H321.898V81.625H317.211V76.9375ZM317.211 81.625H321.898V86.3125H317.211V81.625ZM317.211 86.3125H321.898V91H317.211V86.3125ZM331.742 67.5625H336.43V72.25H331.742V67.5625ZM336.43 67.5625H341.117V72.25H336.43V67.5625ZM341.117 67.5625H345.805V72.25H341.117V67.5625ZM345.805 67.5625H350.492V72.25H345.805V67.5625ZM331.742 72.25H336.43V76.9375H331.742V72.25ZM331.742 76.9375H336.43V81.625H331.742V76.9375ZM336.43 76.9375H341.117V81.625H336.43V76.9375ZM341.117 76.9375H345.805V81.625H341.117V76.9375ZM331.742 81.625H336.43V86.3125H331.742V81.625ZM331.742 86.3125H336.43V91H331.742V86.3125ZM355.742 67.5625H360.43V72.25H355.742V67.5625ZM360.43 67.5625H365.117V72.25H360.43V67.5625ZM365.117 67.5625H369.805V72.25H365.117V67.5625ZM369.805 67.5625H374.492V72.25H369.805V67.5625ZM355.742 72.25H360.43V76.9375H355.742V72.25ZM369.805 72.25H374.492V76.9375H369.805V72.25ZM355.742 76.9375H360.43V81.625H355.742V76.9375ZM369.805 76.9375H374.492V81.625H369.805V76.9375ZM355.742 81.625H360.43V86.3125H355.742V81.625ZM369.805 81.625H374.492V86.3125H369.805V81.625ZM355.742 86.3125H360.43V91H355.742V86.3125ZM360.43 86.3125H365.117V91H360.43V86.3125ZM365.117 86.3125H369.805V91H365.117V86.3125ZM369.805 86.3125H374.492V91H369.805V86.3125ZM379.742 67.5625H384.43V72.25H379.742V67.5625ZM379.742 72.25H384.43V76.9375H379.742V72.25ZM379.742 76.9375H384.43V81.625H379.742V76.9375ZM379.742 81.625H384.43V86.3125H379.742V81.625ZM379.742 86.3125H384.43V91H379.742V86.3125ZM384.43 86.3125H389.117V91H384.43V86.3125ZM389.117 86.3125H393.805V91H389.117V86.3125ZM398.961 67.5625H403.648V72.25H398.961V67.5625ZM403.648 67.5625H408.336V72.25H403.648V67.5625ZM408.336 67.5625H413.023V72.25H408.336V67.5625ZM403.648 72.25H408.336V76.9375H403.648V72.25ZM403.648 76.9375H408.336V81.625H403.648V76.9375ZM403.648 81.625H408.336V86.3125H403.648V81.625ZM398.961 86.3125H403.648V91H398.961V86.3125ZM403.648 86.3125H408.336V91H403.648V86.3125ZM408.336 86.3125H413.023V91H408.336V86.3125ZM418.18 67.5625H422.867V72.25H418.18V67.5625ZM422.867 67.5625H427.555V72.25H422.867V67.5625ZM427.555 67.5625H432.242V72.25H427.555V67.5625ZM432.242 67.5625H436.93V72.25H432.242V67.5625ZM418.18 72.25H422.867V76.9375H418.18V72.25ZM432.242 72.25H436.93V76.9375H432.242V72.25ZM418.18 76.9375H422.867V81.625H418.18V76.9375ZM432.242 76.9375H436.93V81.625H432.242V76.9375ZM418.18 81.625H422.867V86.3125H418.18V81.625ZM432.242 81.625H436.93V86.3125H432.242V81.625ZM418.18 86.3125H422.867V91H418.18V86.3125ZM422.867 86.3125H427.555V91H422.867V86.3125ZM427.555 86.3125H432.242V91H427.555V86.3125ZM432.242 86.3125H436.93V91H432.242V86.3125ZM446.867 86.3125H451.555V91H446.867V86.3125Z" fill="#F5F5F5"/>
</svg>
