<svg width="426" height="27" viewBox="0 0 426 27" fill="none" xmlns="http://www.w3.org/2000/svg">
<g filter="url(#filter0_d_205_300)">
<path d="M0.296875 0.5625H4.98438V5.25H0.296875V0.5625ZM9.67188 0.5625H14.3594V5.25H9.67188V0.5625ZM0.296875 5.25H4.98438V9.9375H0.296875V5.25ZM9.67188 5.25H14.3594V9.9375H9.67188V5.25ZM0.296875 9.9375H4.98438V14.625H0.296875V9.9375ZM9.67188 9.9375H14.3594V14.625H9.67188V9.9375ZM0.296875 14.625H4.98438V19.3125H0.296875V14.625ZM9.67188 14.625H14.3594V19.3125H9.67188V14.625ZM4.98438 19.3125H9.67188V24H4.98438V19.3125ZM19.5156 0.5625H24.2031V5.25H19.5156V0.5625ZM24.2031 0.5625H28.8906V5.25H24.2031V0.5625ZM28.8906 0.5625H33.5781V5.25H28.8906V0.5625ZM24.2031 5.25H28.8906V9.9375H24.2031V5.25ZM24.2031 9.9375H28.8906V14.625H24.2031V9.9375ZM24.2031 14.625H28.8906V19.3125H24.2031V14.625ZM19.5156 19.3125H24.2031V24H19.5156V19.3125ZM24.2031 19.3125H28.8906V24H24.2031V19.3125ZM28.8906 19.3125H33.5781V24H28.8906V19.3125ZM38.7344 0.5625H43.4219V5.25H38.7344V0.5625ZM43.4219 0.5625H48.1094V5.25H43.4219V0.5625ZM48.1094 0.5625H52.7969V5.25H48.1094V0.5625ZM52.7969 0.5625H57.4844V5.25H52.7969V0.5625ZM38.7344 5.25H43.4219V9.9375H38.7344V5.25ZM38.7344 9.9375H43.4219V14.625H38.7344V9.9375ZM43.4219 9.9375H48.1094V14.625H43.4219V9.9375ZM48.1094 9.9375H52.7969V14.625H48.1094V9.9375ZM52.7969 9.9375H57.4844V14.625H52.7969V9.9375ZM52.7969 14.625H57.4844V19.3125H52.7969V14.625ZM38.7344 19.3125H43.4219V24H38.7344V19.3125ZM43.4219 19.3125H48.1094V24H43.4219V19.3125ZM48.1094 19.3125H52.7969V24H48.1094V19.3125ZM52.7969 19.3125H57.4844V24H52.7969V19.3125ZM62.7344 0.5625H67.4219V5.25H62.7344V0.5625ZM67.4219 0.5625H72.1094V5.25H67.4219V0.5625ZM72.1094 0.5625H76.7969V5.25H72.1094V0.5625ZM67.4219 5.25H72.1094V9.9375H67.4219V5.25ZM67.4219 9.9375H72.1094V14.625H67.4219V9.9375ZM67.4219 14.625H72.1094V19.3125H67.4219V14.625ZM62.7344 19.3125H67.4219V24H62.7344V19.3125ZM67.4219 19.3125H72.1094V24H67.4219V19.3125ZM72.1094 19.3125H76.7969V24H72.1094V19.3125ZM81.9531 0.5625H86.6406V5.25H81.9531V0.5625ZM86.6406 0.5625H91.3281V5.25H86.6406V0.5625ZM91.3281 0.5625H96.0156V5.25H91.3281V0.5625ZM86.6406 5.25H91.3281V9.9375H86.6406V5.25ZM86.6406 9.9375H91.3281V14.625H86.6406V9.9375ZM86.6406 14.625H91.3281V19.3125H86.6406V14.625ZM86.6406 19.3125H91.3281V24H86.6406V19.3125ZM120.391 0.5625H125.078V5.25H120.391V0.5625ZM125.078 0.5625H129.766V5.25H125.078V0.5625ZM129.766 0.5625H134.453V5.25H129.766V0.5625ZM125.078 5.25H129.766V9.9375H125.078V5.25ZM125.078 9.9375H129.766V14.625H125.078V9.9375ZM125.078 14.625H129.766V19.3125H125.078V14.625ZM125.078 19.3125H129.766V24H125.078V19.3125ZM139.609 0.5625H144.297V5.25H139.609V0.5625ZM153.672 0.5625H158.359V5.25H153.672V0.5625ZM139.609 5.25H144.297V9.9375H139.609V5.25ZM153.672 5.25H158.359V9.9375H153.672V5.25ZM139.609 9.9375H144.297V14.625H139.609V9.9375ZM144.297 9.9375H148.984V14.625H144.297V9.9375ZM148.984 9.9375H153.672V14.625H148.984V9.9375ZM153.672 9.9375H158.359V14.625H153.672V9.9375ZM139.609 14.625H144.297V19.3125H139.609V14.625ZM153.672 14.625H158.359V19.3125H153.672V14.625ZM139.609 19.3125H144.297V24H139.609V19.3125ZM153.672 19.3125H158.359V24H153.672V19.3125ZM163.609 0.5625H168.297V5.25H163.609V0.5625ZM168.297 0.5625H172.984V5.25H168.297V0.5625ZM172.984 0.5625H177.672V5.25H172.984V0.5625ZM168.297 5.25H172.984V9.9375H168.297V5.25ZM168.297 9.9375H172.984V14.625H168.297V9.9375ZM168.297 14.625H172.984V19.3125H168.297V14.625ZM163.609 19.3125H168.297V24H163.609V19.3125ZM168.297 19.3125H172.984V24H168.297V19.3125ZM172.984 19.3125H177.672V24H172.984V19.3125ZM182.828 0.5625H187.516V5.25H182.828V0.5625ZM187.516 0.5625H192.203V5.25H187.516V0.5625ZM192.203 0.5625H196.891V5.25H192.203V0.5625ZM196.891 0.5625H201.578V5.25H196.891V0.5625ZM182.828 5.25H187.516V9.9375H182.828V5.25ZM182.828 9.9375H187.516V14.625H182.828V9.9375ZM187.516 9.9375H192.203V14.625H187.516V9.9375ZM192.203 9.9375H196.891V14.625H192.203V9.9375ZM196.891 9.9375H201.578V14.625H196.891V9.9375ZM196.891 14.625H201.578V19.3125H196.891V14.625ZM182.828 19.3125H187.516V24H182.828V19.3125ZM187.516 19.3125H192.203V24H187.516V19.3125ZM192.203 19.3125H196.891V24H192.203V19.3125ZM196.891 19.3125H201.578V24H196.891V19.3125ZM226.047 0.5625H230.734V5.25H226.047V0.5625ZM230.734 0.5625H235.422V5.25H230.734V0.5625ZM235.422 0.5625H240.109V5.25H235.422V0.5625ZM240.109 0.5625H244.797V5.25H240.109V0.5625ZM226.047 5.25H230.734V9.9375H226.047V5.25ZM240.109 5.25H244.797V9.9375H240.109V5.25ZM226.047 9.9375H230.734V14.625H226.047V9.9375ZM230.734 9.9375H235.422V14.625H230.734V9.9375ZM235.422 9.9375H240.109V14.625H235.422V9.9375ZM240.109 9.9375H244.797V14.625H240.109V9.9375ZM226.047 14.625H230.734V19.3125H226.047V14.625ZM226.047 19.3125H230.734V24H226.047V19.3125ZM250.047 0.5625H254.734V5.25H250.047V0.5625ZM254.734 0.5625H259.422V5.25H254.734V0.5625ZM259.422 0.5625H264.109V5.25H259.422V0.5625ZM264.109 0.5625H268.797V5.25H264.109V0.5625ZM250.047 5.25H254.734V9.9375H250.047V5.25ZM264.109 5.25H268.797V9.9375H264.109V5.25ZM250.047 9.9375H254.734V14.625H250.047V9.9375ZM264.109 9.9375H268.797V14.625H264.109V9.9375ZM250.047 14.625H254.734V19.3125H250.047V14.625ZM264.109 14.625H268.797V19.3125H264.109V14.625ZM250.047 19.3125H254.734V24H250.047V19.3125ZM254.734 19.3125H259.422V24H254.734V19.3125ZM259.422 19.3125H264.109V24H259.422V19.3125ZM264.109 19.3125H268.797V24H264.109V19.3125ZM274.047 0.5625H278.734V5.25H274.047V0.5625ZM278.734 0.5625H283.422V5.25H278.734V0.5625ZM283.422 0.5625H288.109V5.25H283.422V0.5625ZM288.109 0.5625H292.797V5.25H288.109V0.5625ZM274.047 5.25H278.734V9.9375H274.047V5.25ZM288.109 5.25H292.797V9.9375H288.109V5.25ZM274.047 9.9375H278.734V14.625H274.047V9.9375ZM278.734 9.9375H283.422V14.625H278.734V9.9375ZM283.422 9.9375H288.109V14.625H283.422V9.9375ZM288.109 9.9375H292.797V14.625H288.109V9.9375ZM274.047 14.625H278.734V19.3125H274.047V14.625ZM283.422 14.625H288.109V19.3125H283.422V14.625ZM274.047 19.3125H278.734V24H274.047V19.3125ZM283.422 19.3125H288.109V24H283.422V19.3125ZM288.109 19.3125H292.797V24H288.109V19.3125ZM298.047 0.5625H302.734V5.25H298.047V0.5625ZM302.734 0.5625H307.422V5.25H302.734V0.5625ZM307.422 0.5625H312.109V5.25H307.422V0.5625ZM302.734 5.25H307.422V9.9375H302.734V5.25ZM302.734 9.9375H307.422V14.625H302.734V9.9375ZM302.734 14.625H307.422V19.3125H302.734V14.625ZM302.734 19.3125H307.422V24H302.734V19.3125ZM317.266 0.5625H321.953V5.25H317.266V0.5625ZM321.953 0.5625H326.641V5.25H321.953V0.5625ZM326.641 0.5625H331.328V5.25H326.641V0.5625ZM331.328 0.5625H336.016V5.25H331.328V0.5625ZM317.266 5.25H321.953V9.9375H317.266V5.25ZM317.266 9.9375H321.953V14.625H317.266V9.9375ZM321.953 9.9375H326.641V14.625H321.953V9.9375ZM326.641 9.9375H331.328V14.625H326.641V9.9375ZM317.266 14.625H321.953V19.3125H317.266V14.625ZM317.266 19.3125H321.953V24H317.266V19.3125ZM341.266 0.5625H345.953V5.25H341.266V0.5625ZM345.953 0.5625H350.641V5.25H345.953V0.5625ZM350.641 0.5625H355.328V5.25H350.641V0.5625ZM355.328 0.5625H360.016V5.25H355.328V0.5625ZM341.266 5.25H345.953V9.9375H341.266V5.25ZM355.328 5.25H360.016V9.9375H355.328V5.25ZM341.266 9.9375H345.953V14.625H341.266V9.9375ZM355.328 9.9375H360.016V14.625H355.328V9.9375ZM341.266 14.625H345.953V19.3125H341.266V14.625ZM355.328 14.625H360.016V19.3125H355.328V14.625ZM341.266 19.3125H345.953V24H341.266V19.3125ZM345.953 19.3125H350.641V24H345.953V19.3125ZM350.641 19.3125H355.328V24H350.641V19.3125ZM355.328 19.3125H360.016V24H355.328V19.3125ZM365.266 0.5625H369.953V5.25H365.266V0.5625ZM365.266 5.25H369.953V9.9375H365.266V5.25ZM365.266 9.9375H369.953V14.625H365.266V9.9375ZM365.266 14.625H369.953V19.3125H365.266V14.625ZM365.266 19.3125H369.953V24H365.266V19.3125ZM369.953 19.3125H374.641V24H369.953V19.3125ZM374.641 19.3125H379.328V24H374.641V19.3125ZM384.484 0.5625H389.172V5.25H384.484V0.5625ZM389.172 0.5625H393.859V5.25H389.172V0.5625ZM393.859 0.5625H398.547V5.25H393.859V0.5625ZM389.172 5.25H393.859V9.9375H389.172V5.25ZM389.172 9.9375H393.859V14.625H389.172V9.9375ZM389.172 14.625H393.859V19.3125H389.172V14.625ZM384.484 19.3125H389.172V24H384.484V19.3125ZM389.172 19.3125H393.859V24H389.172V19.3125ZM393.859 19.3125H398.547V24H393.859V19.3125ZM403.703 0.5625H408.391V5.25H403.703V0.5625ZM408.391 0.5625H413.078V5.25H408.391V0.5625ZM413.078 0.5625H417.766V5.25H413.078V0.5625ZM417.766 0.5625H422.453V5.25H417.766V0.5625ZM403.703 5.25H408.391V9.9375H403.703V5.25ZM417.766 5.25H422.453V9.9375H417.766V5.25ZM403.703 9.9375H408.391V14.625H403.703V9.9375ZM417.766 9.9375H422.453V14.625H417.766V9.9375ZM403.703 14.625H408.391V19.3125H403.703V14.625ZM417.766 14.625H422.453V19.3125H417.766V14.625ZM403.703 19.3125H408.391V24H403.703V19.3125ZM408.391 19.3125H413.078V24H408.391V19.3125ZM413.078 19.3125H417.766V24H413.078V19.3125ZM417.766 19.3125H422.453V24H417.766V19.3125Z" fill="#F5F5F5"/>
</g>
<defs>
<filter id="filter0_d_205_300" x="0.296875" y="0.5625" width="425.156" height="26.4375" filterUnits="userSpaceOnUse" color-interpolation-filters="sRGB">
<feFlood flood-opacity="0" result="BackgroundImageFix"/>
<feColorMatrix in="SourceAlpha" type="matrix" values="0 0 0 0 0 0 0 0 0 0 0 0 0 0 0 0 0 0 127 0" result="hardAlpha"/>
<feOffset dx="3" dy="3"/>
<feComposite in2="hardAlpha" operator="out"/>
<feColorMatrix type="matrix" values="0 0 0 0 0.156863 0 0 0 0 0.156863 0 0 0 0 0.156863 0 0 0 1 0"/>
<feBlend mode="normal" in2="BackgroundImageFix" result="effect1_dropShadow_205_300"/>
<feBlend mode="normal" in="SourceGraphic" in2="effect1_dropShadow_205_300" result="shape"/>
</filter>
</defs>
</svg>
